<?xml version="1.0" ?><!DOCTYPE svg  PUBLIC '-//W3C//DTD SVG 1.1//EN'  'http://www.w3.org/Graphics/SVG/1.1/DTD/svg11.dtd'><svg height="512px" id="Layer_1" style="enable-background:new 0 0 512 512;" version="1.1" viewBox="0 0 512 512" width="512px" xml:space="preserve" xmlns="http://www.w3.org/2000/svg" xmlns:xlink="http://www.w3.org/1999/xlink"><g id="Layer_1_1_"><circle cx="259.415" cy="256" r="243" style="fill:#F4B93D;"/></g><g id="Layer_2"><g id="Favorite"/><g><g><path d="M407.87,136.673c-10.647,116.701-21.404,233.391-32.246,350.068     c-8.046,1.758-16.08,3.333-24.102,4.713c-7.411,1.282-14.811,2.405-22.21,3.382c-60.683,7.912-121.097,5.214-181.939-8.107     c-10.855-116.665-21.611-233.354-32.258-350.056c87.483,25.323,175.87,27.851,263.525,7.594c0.305-0.061,0.611-0.134,0.904-0.208     C388.994,141.862,398.444,139.408,407.87,136.673z" style="fill:#E34F50;"/><path d="M407.87,136.673     c-10.647,116.701-21.404,233.391-32.246,350.068c-8.046,1.758-16.08,3.333-24.102,4.713c-7.411,1.282-14.811,2.405-22.21,3.382     c-60.683,7.912-121.097,5.214-181.939-8.107c-10.855-116.665-21.611-233.354-32.258-350.056     c87.483,25.323,175.87,27.851,263.525,7.594c0.305-0.061,0.611-0.134,0.904-0.208     C388.994,141.862,398.444,139.408,407.87,136.673z" style="fill:#E34F50;adobe-blending-mode:multiply;enable-background:new    ;"/></g><g><path d="M407.87,129.75c-0.195,2.112-0.391,4.237-0.586,6.349c-1.636,18.022-3.284,36.043-4.945,54.065     c-8.828,96.567-17.741,193.111-26.715,289.654c-8.046,1.758-16.08,3.333-24.102,4.713c-7.411,1.282-14.811,2.405-22.21,3.382     c-60.683,7.912-121.097,5.214-181.939-8.107c-8.999-96.726-17.936-193.477-26.788-290.228     c-1.648-18.022-3.297-36.056-4.945-54.077c-0.171-1.917-0.354-3.834-0.525-5.751c87.483,25.323,175.87,27.851,263.525,7.594     c0.305-0.061,0.611-0.134,0.904-0.208C388.994,134.939,398.444,132.485,407.87,129.75z" style="fill:#E34F50;"/></g><g style="adobe-blending-mode:screen;"><path d="M379.544,137.076v0.061c-9.243,115.81-18.583,231.596-28.022,347.394     c-7.411,1.282-14.811,2.405-22.21,3.382c6.386-114.125,12.698-228.238,18.913-342.376c10.146-2.418,20.293-5.153,30.415-8.193     C378.945,137.259,379.238,137.162,379.544,137.076z" style="fill:#E34F50;adobe-blending-mode:normal;"/></g><g style="opacity:0.8;adobe-blending-mode:multiply;"><path d="M178.118,144.011c5.409,114.675,10.916,229.337,16.508,344.012     c-15.726-2.027-31.477-4.762-47.252-8.217c-10.855-116.665-21.611-233.354-32.258-350.056     C136.067,135.818,157.081,140.568,178.118,144.011z" style="fill:#E34F50;adobe-blending-mode:normal;"/></g><g style="opacity:0.2;adobe-blending-mode:multiply;"><path d="M407.284,136.099c-1.636,18.022-3.284,36.043-4.945,54.065     c-10.024,2.466-20.061,4.664-30.085,6.581c-11.88,2.283-23.76,4.2-35.653,5.739c-49.23,6.373-98.533,6.373-147.763,0.012     c-22.771-2.942-45.518-7.253-68.253-12.918c-1.648-18.022-3.297-36.056-4.945-54.077c0.122,0.024,0.256,0.049,0.379,0.085     c24.249,6.239,48.522,10.94,72.819,14.066c49.23,6.373,98.533,6.373,147.763-0.012c11.88-1.526,23.773-3.443,35.653-5.726     C383.939,141.679,395.612,139.066,407.284,136.099z" style="adobe-blending-mode:normal;"/></g><g><path d="M417.699,136.673v32.075c0,5.726-3.748,11.477-8.388,12.747     c-12.344,3.175-24.701,5.958-37.057,8.327c-11.88,2.283-23.76,4.2-35.653,5.739c-49.23,6.373-98.533,6.373-147.763,0.012     c-24.298-3.138-48.571-7.839-72.819-14.078c-4.64-1.27-8.388-7.021-8.388-12.747v-32.075c0-5.739,3.748-9.28,8.388-8.01     c24.249,6.239,48.522,10.94,72.819,14.066c49.23,6.373,98.533,6.373,147.763-0.012c11.88-1.526,23.773-3.443,35.653-5.726     c12.356-2.369,24.713-5.153,37.057-8.327C413.951,127.394,417.699,130.935,417.699,136.673z" style="fill:#B2B2B2;"/></g><path d="M188.838,142.729v52.844    c-24.298-3.138-48.571-7.839-72.819-14.078c-4.64-1.27-8.388-7.021-8.388-12.747v-32.075c0-5.739,3.748-9.28,8.388-8.01    C140.268,134.903,164.541,139.603,188.838,142.729z" style="opacity:0.8;fill:#B2B2B2;adobe-blending-mode:multiply;enable-background:new    ;"/><path d="M372.254,136.991v52.832    c-11.88,2.283-23.76,4.2-35.653,5.739v-52.844C348.482,141.191,360.374,139.274,372.254,136.991z" style="opacity:0.5;fill:#B2B2B2;adobe-blending-mode:screen;enable-background:new    ;"/><ellipse cx="261.944" cy="129.317" rx="152.36" ry="20.822" style="fill:#989898;"/><g><path d="M327.444,129.75h-15.873v-19.065c0-3.23-11.338-11.13-32.356-11.13h-35.444     c-21.231,0-32.356,7.769-32.356,10.457v18.393h-15.873v-18.393c0-17.286,24.262-26.33,48.229-26.33h35.444     c27.495,0,48.229,11.609,48.229,27.002L327.444,129.75L327.444,129.75z" style="fill:#B2B2B2;"/></g><g style="opacity:0.8;adobe-blending-mode:multiply;"><path d="M199.009,124.939h12.405v3.468h-15.873v-18.4     c0-5.983,2.906-10.977,7.717-14.957c-2.698,3.297-4.249,7.131-4.249,11.502V124.939z" style="fill:#B2B2B2;adobe-blending-mode:normal;"/><path d="M327.444,126.283v3.468h-15.873v-19.06     c0-3.236-11.343-11.136-32.356-11.136H243.77c-14.298,0-24.005,3.517-28.827,6.642c0.855-2.943,11.917-10.098,32.295-10.098     h35.433c21.025,0,32.356,7.888,32.356,11.123v19.06h12.417V126.283z" style="fill:#B2B2B2;adobe-blending-mode:normal;"/></g><g style="adobe-blending-mode:screen;"><g style="adobe-blending-mode:normal;"><path d="M185.497,322.074c2.402-0.9,4.899-0.343,7.351-0.449c0.829-0.036,1.495-0.546,2.361-0.493      c1.635,0.1,3.321,0.248,4.915-0.03c2.904-0.507,5.862-0.014,8.695-0.5c2.487-0.427,4.943-0.019,7.368-0.38      c2.728-0.407,5.451-0.16,8.174-0.268c0.124-0.005,0.253-0.001,0.37-0.033c0.875-0.236,1.382,0.107,1.724,0.994      c0.659,1.711,1.339,3.411,2.352,4.965c0.39,0.598,0.433,1.378,0.854,2.007c0.472,0.704,0.863,1.482,1.197,2.248      c0.325,0.745,0.555,1.552,0.911,2.291c0.51,1.057,0.948,2.158,1.654,3.108c0.21,0.283,0.297,0.637,0.398,0.925      c0.389,1.112,1.051,2.089,1.436,3.203c0.353,1.021,0.87,1.988,1.355,2.959c0.504,1.009,1.043,2.001,1.591,2.986      c0.404,0.726,0.713,1.508,1,2.268c0.317,0.841,0.724,1.625,1.107,2.427c0.477,0.998,0.949,2,1.464,2.98      c0.132,0.252,0.22,0.494,0.035,0.675c-0.272,0.266-0.422-0.105-0.493-0.239c-0.275-0.524-0.868-0.586-1.282-0.773      c-1.198-0.539-2.456-1.126-3.399-1.909c-1.153-0.958-2.554-1.351-3.742-2.199c-1.028-0.735-2.069-1.69-3.478-1.909      c-0.472-0.073-0.894-0.568-1.305-0.911c-0.728-0.607-1.461-0.439-1.663,0.461c-0.11,0.49-0.44,0.825-0.692,1.191      c-0.896,1.3-1.703,2.641-2.381,4.068c-0.263,0.555-0.819,0.908-1.066,1.527c-0.379,0.952-1.137,1.715-1.46,2.721      c-0.121,0.378-0.389,0.745-0.679,1.025c-0.466,0.449-0.606,1.047-0.881,1.586c-0.621,1.219-1.058,2.548-2.075,3.533      c-0.288,0.279-0.254,0.68-0.411,1.013c-0.655,1.391-1.369,2.747-2.142,4.076c-0.194,0.333-0.366,0.708-0.427,1.084      c-0.119,0.742-0.557,1.332-0.813,1.999c-0.212,0.552-0.304,1.179-0.595,1.701c-0.434,0.779-0.254,1.738-0.796,2.47      c-0.041,0.056-0.055,0.139-0.064,0.211c-0.343,2.561-0.454,5.142-0.259,7.71c0.06,0.796,0.024,1.68,0.297,2.399      c0.292,0.768,0.243,1.614,0.696,2.342c0.283,0.454,0.29,1.045,0.522,1.572c0.829,1.881,1.464,3.855,2.809,5.465      c0.258,0.309,0.211,0.759,0.57,1.02c0.126,0.092-0.013,0.279-0.182,0.311c-0.255,0.048-0.456-0.014-0.661-0.221      c-1.376-1.383-2.993-2.477-4.331-3.943c-1.224-1.342-2.69-2.522-3.887-3.899c-1.03-1.184-2.106-2.351-2.987-3.681      c-0.666-1.005-1.469-1.934-2.079-2.978c-0.631-1.081-1.322-2.135-2.01-3.165c-0.771-1.154-1.322-2.425-2.129-3.555      c-0.654-0.916-1.134-1.958-1.532-3.03c-0.241-0.648-0.559-1.283-0.942-1.857c-0.463-0.692-0.767-1.449-1.077-2.204      c-0.521-1.269-1.158-2.489-1.678-3.749c-0.399-0.967-0.878-1.976-0.897-3.064c-0.009-0.515-0.35-0.868-0.52-1.267      c-0.328-0.767-0.202-1.658-0.725-2.344c-0.043-0.056-0.073-0.137-0.074-0.208c-0.03-1.297-0.792-2.508-0.482-3.837      c0.203-0.867-0.516-1.529-0.446-2.362c0.048-0.582-0.076-1.16,0.346-1.703c0.248-0.319,0.09-0.823,0.088-1.243      c-0.006-1.186,0.441-2.252,0.787-3.357c0.179-0.57,0.346-1.145,0.559-1.706c0.477-1.257,0.798-2.557,1.477-3.757      c0.635-1.123,1.33-2.239,1.754-3.478c0.345-1.009,1.074-1.784,1.623-2.67c0.545-0.88,1.102-1.751,1.682-2.61      c0.293-0.434-0.295-0.567-0.54-0.777c-1.036-0.885-2.341-1.303-3.523-1.922c-1.026-0.537-2.018-1.146-3.081-1.623      c-0.832-0.373-1.563-0.972-2.396-1.341c-1.078-0.478-1.97-1.383-3.236-1.433C185.497,322.372,185.497,322.223,185.497,322.074z" style="fill:#F5FAF4;"/><path d="M185.497,322.074      c2.402-0.9,4.899-0.343,7.351-0.449c0.829-0.036,1.495-0.546,2.361-0.493c1.635,0.1,3.321,0.248,4.915-0.03      c2.904-0.507,5.862-0.014,8.695-0.5c2.487-0.427,4.943-0.019,7.368-0.38c2.728-0.407,5.451-0.16,8.174-0.268      c0.124-0.005,0.253-0.001,0.37-0.033c0.875-0.236,1.382,0.107,1.724,0.994c0.659,1.711,1.339,3.411,2.352,4.965      c0.39,0.598,0.433,1.378,0.854,2.007c0.472,0.704,0.863,1.482,1.197,2.248c0.325,0.745,0.555,1.552,0.911,2.291      c0.51,1.057,0.948,2.158,1.654,3.108c0.21,0.283,0.297,0.637,0.398,0.925c0.389,1.112,1.051,2.089,1.436,3.203      c0.353,1.021,0.87,1.988,1.355,2.959c0.504,1.009,1.043,2.001,1.591,2.986c0.404,0.726,0.713,1.508,1,2.268      c0.317,0.841,0.724,1.625,1.107,2.427c0.477,0.998,0.949,2,1.464,2.98c0.132,0.252,0.22,0.494,0.035,0.675      c-0.272,0.266-0.422-0.105-0.493-0.239c-0.275-0.524-0.868-0.586-1.282-0.773c-1.198-0.539-2.456-1.126-3.399-1.909      c-1.153-0.958-2.554-1.351-3.742-2.199c-1.028-0.735-2.069-1.69-3.478-1.909c-0.472-0.073-0.894-0.568-1.305-0.911      c-0.728-0.607-1.461-0.439-1.663,0.461c-0.11,0.49-0.44,0.825-0.692,1.191c-0.896,1.3-1.703,2.641-2.381,4.068      c-0.263,0.555-0.819,0.908-1.066,1.527c-0.379,0.952-1.137,1.715-1.46,2.721c-0.121,0.378-0.389,0.745-0.679,1.025      c-0.466,0.449-0.606,1.047-0.881,1.586c-0.621,1.219-1.058,2.548-2.075,3.533c-0.288,0.279-0.254,0.68-0.411,1.013      c-0.655,1.391-1.369,2.747-2.142,4.076c-0.194,0.333-0.366,0.708-0.427,1.084c-0.119,0.742-0.557,1.332-0.813,1.999      c-0.212,0.552-0.304,1.179-0.595,1.701c-0.434,0.779-0.254,1.738-0.796,2.47c-0.041,0.056-0.055,0.139-0.064,0.211      c-0.343,2.561-0.454,5.142-0.259,7.71c0.06,0.796,0.024,1.68,0.297,2.399c0.292,0.768,0.243,1.614,0.696,2.342      c0.283,0.454,0.29,1.045,0.522,1.572c0.829,1.881,1.464,3.855,2.809,5.465c0.258,0.309,0.211,0.759,0.57,1.02      c0.126,0.092-0.013,0.279-0.182,0.311c-0.255,0.048-0.456-0.014-0.661-0.221c-1.376-1.383-2.993-2.477-4.331-3.943      c-1.224-1.342-2.69-2.522-3.887-3.899c-1.03-1.184-2.106-2.351-2.987-3.681c-0.666-1.005-1.469-1.934-2.079-2.978      c-0.631-1.081-1.322-2.135-2.01-3.165c-0.771-1.154-1.322-2.425-2.129-3.555c-0.654-0.916-1.134-1.958-1.532-3.03      c-0.241-0.648-0.559-1.283-0.942-1.857c-0.463-0.692-0.767-1.449-1.077-2.204c-0.521-1.269-1.158-2.489-1.678-3.749      c-0.399-0.967-0.878-1.976-0.897-3.064c-0.009-0.515-0.35-0.868-0.52-1.267c-0.328-0.767-0.202-1.658-0.725-2.344      c-0.043-0.056-0.073-0.137-0.074-0.208c-0.03-1.297-0.792-2.508-0.482-3.837c0.203-0.867-0.516-1.529-0.446-2.362      c0.048-0.582-0.076-1.16,0.346-1.703c0.248-0.319,0.09-0.823,0.088-1.243c-0.006-1.186,0.441-2.252,0.787-3.357      c0.179-0.57,0.346-1.145,0.559-1.706c0.477-1.257,0.798-2.557,1.477-3.757c0.635-1.123,1.33-2.239,1.754-3.478      c0.345-1.009,1.074-1.784,1.623-2.67c0.545-0.88,1.102-1.751,1.682-2.61c0.293-0.434-0.295-0.567-0.54-0.777      c-1.036-0.885-2.341-1.303-3.523-1.922c-1.026-0.537-2.018-1.146-3.081-1.623c-0.832-0.373-1.563-0.972-2.396-1.341      c-1.078-0.478-1.97-1.383-3.236-1.433C185.497,322.372,185.497,322.223,185.497,322.074z" style="fill:#E34F50;adobe-blending-mode:multiply;enable-background:new    ;"/></g><g style="adobe-blending-mode:normal;"><path d="M248.969,269.177c0.752-0.016,1.537,0.198,2.22-0.341c0.146-0.115,0.434-0.064,0.657-0.064      c3.109-0.001,6.245-0.242,9.318,0.093c2.014,0.219,4.055,0.057,6.009,0.449c1.101,0.221,2.309-0.001,3.231,0.433      c1.125,0.53,2.408-0.073,3.389,0.757c0.017,0.015,0.049,0.024,0.071,0.02c1.111-0.222,2.07,0.459,3.155,0.527      c0.893,0.056,1.817,0.211,2.708,0.578c0.615,0.253,1.347,0.34,2.019,0.552c0.707,0.223,1.382,0.538,2.08,0.753      c0.878,0.272,1.727,0.636,2.618,0.855c0.853,0.21,1.529,0.759,2.258,1.176c0.828,0.474,1.592,1.065,2.435,1.54      c0.519,0.292,0.946,0.784,1.347,1.245c1.049,1.204,2.326,2.178,3.369,3.378c0.582,0.67,1.011,1.473,1.505,2.218      c0.6,0.904,1.235,1.789,1.783,2.723c0.673,1.147,1.271,2.337,1.905,3.507c0.683,1.261,1.185,2.598,1.706,3.929      c0.196,0.501,0.956,0.557,1.58,0.043c0.625-0.515,1.408-0.633,2.092-0.993c0.697-0.366,1.377-0.785,2.094-1.127      c0.692-0.331,1.417-0.608,2.105-0.963c1.029-0.531,2.006-1.179,3.09-1.596c0.842-0.324,1.587-0.888,2.507-1.008      c0.212-0.028,0.366-0.118,0.505-0.277c0.148-0.169,0.366-0.199,0.544-0.086c0.247,0.156,0.039,0.329-0.014,0.51      c-0.225,0.765-0.86,1.266-1.223,1.958c-0.712,1.358-1.65,2.592-2.412,3.935c-0.358,0.632-0.708,1.334-1.284,1.829      c-0.32,0.275-0.231,0.675-0.44,0.997c-0.595,0.916-1.399,1.73-1.858,2.667c-0.437,0.894-0.891,1.837-1.481,2.555      c-0.744,0.905-1.039,2.017-1.779,2.917c-0.642,0.78-1.136,1.74-1.652,2.647c-0.437,0.768-0.808,1.606-1.361,2.289      c-0.726,0.897-1.198,1.933-1.828,2.875c-0.508,0.76-0.908,1.604-1.57,2.255c-0.136,0.134-0.185,0.281-0.234,0.449      c-0.294,1.011-0.955,1.813-1.635,2.558c-0.367,0.402-0.594,0.902-0.729,1.314c-0.216,0.657-0.83,1.015-0.986,1.696      c-0.064,0.28-0.412,0.877-0.993,0.357c-0.123-0.11-0.378-0.081-0.573-0.099c-1.286-0.116-2.607,0.261-3.862-0.408      c-0.37-0.197-0.933-0.003-1.401-0.051c-2.165-0.222-4.327-0.468-6.491-0.702c-0.222-0.024-0.448-0.047-0.669-0.033      c-2.224,0.142-4.371-0.758-6.603-0.479c-1.144-0.679-2.484-0.113-3.605-0.487c-1.446-0.482-2.945-0.058-4.289-0.472      c-1.287-0.396-2.633,0.006-3.768-0.431c-1.714-0.66-3.495-0.027-5.177-0.622c-0.555-0.196-1.233-0.038-1.854-0.057      c-0.238-0.007-0.577,0.078-0.666-0.194c-0.103-0.314,0.263-0.513,0.456-0.587c0.895-0.345,1.611-1.055,2.556-1.271      c0.854-0.196,1.475-0.819,2.27-1.14c0.951-0.383,1.76-1.117,2.761-1.39c0.841-0.229,1.486-0.791,2.265-1.125      c1.215-0.522,2.329-1.279,3.493-1.922c0.848-0.469,1.705-0.921,2.566-1.367c0.172-0.089,0.299-0.125,0.199-0.371      c-0.484-1.196-1.077-2.331-1.778-3.417c-0.341-0.529-0.642-1.109-0.827-1.708c-0.248-0.8-0.702-1.487-1.081-2.207      c-0.459-0.871-0.989-1.713-1.328-2.634c-0.409-1.111-1.12-2.03-1.715-3.024c-0.335-0.561-0.641-1.132-0.859-1.757      c-0.371-1.063-1.055-1.96-1.717-2.849c-0.268-0.36-0.404-0.777-0.601-1.145c-0.699-1.3-1.482-2.524-2.444-3.641      c-0.151-0.176-0.144-0.48-0.283-0.674c-0.926-1.296-1.783-2.656-2.842-3.835c-0.662-0.737-1.384-1.473-2.135-2.106      c-0.745-0.629-1.626-1.131-2.405-1.763c-1.559-1.265-3.489-1.894-5.228-2.852c-0.825-0.454-1.888-0.632-2.841-0.928      c-1.037-0.322-2.171-0.229-3.145-0.791c-0.175-0.101-0.445-0.102-0.657-0.066c-1.602,0.267-3.097-0.51-4.674-0.469      c-0.146,0.004-0.325-0.03-0.345-0.213c-0.022-0.195,0.155-0.21,0.298-0.255c1.265-0.398,2.588-0.605,3.81-1.147      c0.045-0.02,0.099-0.041,0.144-0.033c1.107,0.185,2.192-0.277,3.123-0.595c1.135-0.388,2.352,0.007,3.418-0.672      C247.706,269.051,248.4,269.211,248.969,269.177z" style="fill:#F5FAF4;"/><path d="M248.969,269.177      c0.752-0.016,1.537,0.198,2.22-0.341c0.146-0.115,0.434-0.064,0.657-0.064c3.109-0.001,6.245-0.242,9.318,0.093      c2.014,0.219,4.055,0.057,6.009,0.449c1.101,0.221,2.309-0.001,3.231,0.433c1.125,0.53,2.408-0.073,3.389,0.757      c0.017,0.015,0.049,0.024,0.071,0.02c1.111-0.222,2.07,0.459,3.155,0.527c0.893,0.056,1.817,0.211,2.708,0.578      c0.615,0.253,1.347,0.34,2.019,0.552c0.707,0.223,1.382,0.538,2.08,0.753c0.878,0.272,1.727,0.636,2.618,0.855      c0.853,0.21,1.529,0.759,2.258,1.176c0.828,0.474,1.592,1.065,2.435,1.54c0.519,0.292,0.946,0.784,1.347,1.245      c1.049,1.204,2.326,2.178,3.369,3.378c0.582,0.67,1.011,1.473,1.505,2.218c0.6,0.904,1.235,1.789,1.783,2.723      c0.673,1.147,1.271,2.337,1.905,3.507c0.683,1.261,1.185,2.598,1.706,3.929c0.196,0.501,0.956,0.557,1.58,0.043      c0.625-0.515,1.408-0.633,2.092-0.993c0.697-0.366,1.377-0.785,2.094-1.127c0.692-0.331,1.417-0.608,2.105-0.963      c1.029-0.531,2.006-1.179,3.09-1.596c0.842-0.324,1.587-0.888,2.507-1.008c0.212-0.028,0.366-0.118,0.505-0.277      c0.148-0.169,0.366-0.199,0.544-0.086c0.247,0.156,0.039,0.329-0.014,0.51c-0.225,0.765-0.86,1.266-1.223,1.958      c-0.712,1.358-1.65,2.592-2.412,3.935c-0.358,0.632-0.708,1.334-1.284,1.829c-0.32,0.275-0.231,0.675-0.44,0.997      c-0.595,0.916-1.399,1.73-1.858,2.667c-0.437,0.894-0.891,1.837-1.481,2.555c-0.744,0.905-1.039,2.017-1.779,2.917      c-0.642,0.78-1.136,1.74-1.652,2.647c-0.437,0.768-0.808,1.606-1.361,2.289c-0.726,0.897-1.198,1.933-1.828,2.875      c-0.508,0.76-0.908,1.604-1.57,2.255c-0.136,0.134-0.185,0.281-0.234,0.449c-0.294,1.011-0.955,1.813-1.635,2.558      c-0.367,0.402-0.594,0.902-0.729,1.314c-0.216,0.657-0.83,1.015-0.986,1.696c-0.064,0.28-0.412,0.877-0.993,0.357      c-0.123-0.11-0.378-0.081-0.573-0.099c-1.286-0.116-2.607,0.261-3.862-0.408c-0.37-0.197-0.933-0.003-1.401-0.051      c-2.165-0.222-4.327-0.468-6.491-0.702c-0.222-0.024-0.448-0.047-0.669-0.033c-2.224,0.142-4.371-0.758-6.603-0.479      c-1.144-0.679-2.484-0.113-3.605-0.487c-1.446-0.482-2.945-0.058-4.289-0.472c-1.287-0.396-2.633,0.006-3.768-0.431      c-1.714-0.66-3.495-0.027-5.177-0.622c-0.555-0.196-1.233-0.038-1.854-0.057c-0.238-0.007-0.577,0.078-0.666-0.194      c-0.103-0.314,0.263-0.513,0.456-0.587c0.895-0.345,1.611-1.055,2.556-1.271c0.854-0.196,1.475-0.819,2.27-1.14      c0.951-0.383,1.76-1.117,2.761-1.39c0.841-0.229,1.486-0.791,2.265-1.125c1.215-0.522,2.329-1.279,3.493-1.922      c0.848-0.469,1.705-0.921,2.566-1.367c0.172-0.089,0.299-0.125,0.199-0.371c-0.484-1.196-1.077-2.331-1.778-3.417      c-0.341-0.529-0.642-1.109-0.827-1.708c-0.248-0.8-0.702-1.487-1.081-2.207c-0.459-0.871-0.989-1.713-1.328-2.634      c-0.409-1.111-1.12-2.03-1.715-3.024c-0.335-0.561-0.641-1.132-0.859-1.757c-0.371-1.063-1.055-1.96-1.717-2.849      c-0.268-0.36-0.404-0.777-0.601-1.145c-0.699-1.3-1.482-2.524-2.444-3.641c-0.151-0.176-0.144-0.48-0.283-0.674      c-0.926-1.296-1.783-2.656-2.842-3.835c-0.662-0.737-1.384-1.473-2.135-2.106c-0.745-0.629-1.626-1.131-2.405-1.763      c-1.559-1.265-3.489-1.894-5.228-2.852c-0.825-0.454-1.888-0.632-2.841-0.928c-1.037-0.322-2.171-0.229-3.145-0.791      c-0.175-0.101-0.445-0.102-0.657-0.066c-1.602,0.267-3.097-0.51-4.674-0.469c-0.146,0.004-0.325-0.03-0.345-0.213      c-0.022-0.195,0.155-0.21,0.298-0.255c1.265-0.398,2.588-0.605,3.81-1.147c0.045-0.02,0.099-0.041,0.144-0.033      c1.107,0.185,2.192-0.277,3.123-0.595c1.135-0.388,2.352,0.007,3.418-0.672C247.706,269.051,248.4,269.211,248.969,269.177z" style="fill:#E34F50;adobe-blending-mode:multiply;enable-background:new    ;"/></g><g style="adobe-blending-mode:normal;"><path d="M282.989,357.746c-0.001,2.811,0.017,5.622-0.013,8.432c-0.008,0.689,0.166,0.962,0.911,0.958      c5.547-0.028,11.094-0.016,16.641-0.017c2.367-0.746,4.831-0.165,7.206-0.506c1.868-0.268,3.712-0.14,5.564-0.233      c0.54-0.027,1.057,0.006,1.56-0.344c0.262-0.183,0.733-0.154,1.09-0.095c1.286,0.212,2.56-0.11,3.662-0.554      c1.153-0.464,2.334-0.975,3.409-1.744c1.329-0.95,2.418-2.108,3.555-3.227c0.609-0.599,1.294-1.145,1.816-1.809      c0.652-0.829,1.231-1.746,1.669-2.704c0.303-0.663,1.066-1.073,1.024-1.909c-0.002-0.042,0.101-0.126,0.156-0.127      c0.152-0.001,0.222,0.133,0.213,0.252c-0.105,1.478,0.382,2.974-0.303,4.45c-0.259,0.559-0.357,1.255-0.489,1.881      c-0.138,0.657-0.381,1.304-0.653,1.837c-0.439,0.86-0.478,1.838-1.012,2.655c-0.418,0.639-0.691,1.376-1.006,2.079      c-0.384,0.858-0.74,1.729-1.118,2.59c-0.332,0.757-0.671,1.519-1.183,2.172c-0.483,0.616-0.865,1.268-1.12,2.012      c-0.15,0.437-0.436,0.821-0.678,1.222c-0.57,0.945-1.41,1.725-1.698,2.848c-0.141,0.55-0.634,0.943-0.979,1.344      c-0.988,1.152-1.601,2.546-2.589,3.711c-0.55,0.648-1.418,1.203-1.577,2.22c-0.047,0.302-0.429,0.606-0.728,0.804      c-0.932,0.618-1.298,1.686-2.019,2.451c-1.357,1.44-2.851,2.752-4.233,4.17c-0.652,0.669-1.242,1.347-2.145,1.734      c-0.42,0.18-0.797,0.605-1.157,0.913c-1.269,1.086-2.884,1.451-4.278,2.257c-0.496,0.287-1.154,0.558-1.832,0.637      c-0.631,0.073-1.237,0.358-1.885,0.49c-0.741,0.15-1.545,0.006-2.188,0.266c-1.301,0.527-2.685,0.102-3.915,0.466      c-2.459,0.727-4.922,0.185-7.371,0.374c-0.539,0.042-0.845-0.47-1.387-0.453c-0.852,0.027-0.947,0.063-0.946,0.917      c0.007,4.403,0.017,8.806,0.025,13.209c0,0.248-0.007,0.497-0.028,0.745c-0.017,0.195-0.134,0.32-0.337,0.333      c-0.205,0.014-0.465,0.005-0.497-0.222c-0.105-0.764-0.829-1.098-1.169-1.727c-0.519-0.959-1.102-1.919-1.762-2.828      c-1.169-1.61-2.244-3.307-3.31-4.99c-0.789-1.244-1.687-2.431-2.388-3.745c-0.585-1.097-1.21-2.202-2.07-3.129      c-0.507-0.546-0.63-1.305-1.129-1.87c-0.524-0.593-0.911-1.305-1.37-1.956c-0.213-0.302-0.454-0.577-0.577-0.941      c-0.342-1.009-1.052-1.787-1.734-2.562c-0.286-0.325-0.346-0.727-0.577-1.073c-0.738-1.104-1.485-2.204-2.229-3.305      c-0.719-1.063-1.31-2.209-2.149-3.196c-0.324-0.381-0.621-0.833-0.768-1.303c-0.22-0.707,0.293-1.292,0.676-1.765      c0.891-1.099,1.517-2.364,2.348-3.484c0.504-0.68,0.893-1.435,1.458-2.079c0.423-0.482,0.746-1.081,0.993-1.678      c0.217-0.523,0.648-0.863,0.967-1.271c0.826-1.054,1.39-2.267,2.197-3.337c0.728-0.966,1.469-1.968,1.974-3.107      c0.227-0.513,0.753-0.817,1.021-1.381c0.647-1.361,1.644-2.529,2.485-3.778c0.716-1.063,1.299-2.232,2.229-3.186      c0.384-0.394,0.855-1.007,0.941-1.698c0.012-0.095,0.04-0.219,0.107-0.27c0.9-0.702,1.438-1.716,1.983-2.647      c0.688-1.177,1.593-2.192,2.256-3.372c0.061-0.109,0.096-0.254,0.247-0.205c0.073,0.023,0.15,0.14,0.162,0.223      c0.034,0.245,0.05,0.494,0.05,0.742C282.991,352.124,282.99,354.935,282.989,357.746z" style="fill:#F5FAF4;"/><path d="M282.989,357.746      c-0.001,2.811,0.017,5.622-0.013,8.432c-0.008,0.689,0.166,0.962,0.911,0.958c5.547-0.028,11.094-0.016,16.641-0.017      c2.367-0.746,4.831-0.165,7.206-0.506c1.868-0.268,3.712-0.14,5.564-0.233c0.54-0.027,1.057,0.006,1.56-0.344      c0.262-0.183,0.733-0.154,1.09-0.095c1.286,0.212,2.56-0.11,3.662-0.554c1.153-0.464,2.334-0.975,3.409-1.744      c1.329-0.95,2.418-2.108,3.555-3.227c0.609-0.599,1.294-1.145,1.816-1.809c0.652-0.829,1.231-1.746,1.669-2.704      c0.303-0.663,1.066-1.073,1.024-1.909c-0.002-0.042,0.101-0.126,0.156-0.127c0.152-0.001,0.222,0.133,0.213,0.252      c-0.105,1.478,0.382,2.974-0.303,4.45c-0.259,0.559-0.357,1.255-0.489,1.881c-0.138,0.657-0.381,1.304-0.653,1.837      c-0.439,0.86-0.478,1.838-1.012,2.655c-0.418,0.639-0.691,1.376-1.006,2.079c-0.384,0.858-0.74,1.729-1.118,2.59      c-0.332,0.757-0.671,1.519-1.183,2.172c-0.483,0.616-0.865,1.268-1.12,2.012c-0.15,0.437-0.436,0.821-0.678,1.222      c-0.57,0.945-1.41,1.725-1.698,2.848c-0.141,0.55-0.634,0.943-0.979,1.344c-0.988,1.152-1.601,2.546-2.589,3.711      c-0.55,0.648-1.418,1.203-1.577,2.22c-0.047,0.302-0.429,0.606-0.728,0.804c-0.932,0.618-1.298,1.686-2.019,2.451      c-1.357,1.44-2.851,2.752-4.233,4.17c-0.652,0.669-1.242,1.347-2.145,1.734c-0.42,0.18-0.797,0.605-1.157,0.913      c-1.269,1.086-2.884,1.451-4.278,2.257c-0.496,0.287-1.154,0.558-1.832,0.637c-0.631,0.073-1.237,0.358-1.885,0.49      c-0.741,0.15-1.545,0.006-2.188,0.266c-1.301,0.527-2.685,0.102-3.915,0.466c-2.459,0.727-4.922,0.185-7.371,0.374      c-0.539,0.042-0.845-0.47-1.387-0.453c-0.852,0.027-0.947,0.063-0.946,0.917c0.007,4.403,0.017,8.806,0.025,13.209      c0,0.248-0.007,0.497-0.028,0.745c-0.017,0.195-0.134,0.32-0.337,0.333c-0.205,0.014-0.465,0.005-0.497-0.222      c-0.105-0.764-0.829-1.098-1.169-1.727c-0.519-0.959-1.102-1.919-1.762-2.828c-1.169-1.61-2.244-3.307-3.31-4.99      c-0.789-1.244-1.687-2.431-2.388-3.745c-0.585-1.097-1.21-2.202-2.07-3.129c-0.507-0.546-0.63-1.305-1.129-1.87      c-0.524-0.593-0.911-1.305-1.37-1.956c-0.213-0.302-0.454-0.577-0.577-0.941c-0.342-1.009-1.052-1.787-1.734-2.562      c-0.286-0.325-0.346-0.727-0.577-1.073c-0.738-1.104-1.485-2.204-2.229-3.305c-0.719-1.063-1.31-2.209-2.149-3.196      c-0.324-0.381-0.621-0.833-0.768-1.303c-0.22-0.707,0.293-1.292,0.676-1.765c0.891-1.099,1.517-2.364,2.348-3.484      c0.504-0.68,0.893-1.435,1.458-2.079c0.423-0.482,0.746-1.081,0.993-1.678c0.217-0.523,0.648-0.863,0.967-1.271      c0.826-1.054,1.39-2.267,2.197-3.337c0.728-0.966,1.469-1.968,1.974-3.107c0.227-0.513,0.753-0.817,1.021-1.381      c0.647-1.361,1.644-2.529,2.485-3.778c0.716-1.063,1.299-2.232,2.229-3.186c0.384-0.394,0.855-1.007,0.941-1.698      c0.012-0.095,0.04-0.219,0.107-0.27c0.9-0.702,1.438-1.716,1.983-2.647c0.688-1.177,1.593-2.192,2.256-3.372      c0.061-0.109,0.096-0.254,0.247-0.205c0.073,0.023,0.15,0.14,0.162,0.223c0.034,0.245,0.05,0.494,0.05,0.742      C282.991,352.124,282.99,354.935,282.989,357.746z" style="fill:#E34F50;adobe-blending-mode:multiply;enable-background:new    ;"/></g><g style="adobe-blending-mode:normal;"><path d="M258.087,296.319c0.121,0.675-0.327,1.258-0.643,1.596c-0.701,0.751-1.088,1.632-1.601,2.47      c-0.296,0.485-0.73,0.936-1.072,1.431c-0.509,0.736-1.038,1.449-1.438,2.261c-0.344,0.696-1.016,1.158-1.442,1.834      c-0.792,1.257-1.596,2.512-2.437,3.734c-0.411,0.597-0.894,1.166-1.228,1.808c-0.584,1.119-1.628,1.933-2.025,3.176      c-0.163,0.511-0.643,0.857-0.966,1.279c-0.564,0.737-1.013,1.553-1.623,2.26c-0.48,0.557-0.858,1.207-1.235,1.844      c-0.329,0.557-0.588,0.519-1.161,0.27c-0.723-0.314-1.225-0.947-1.97-1.193c-0.111-0.037-0.26-0.099-0.299-0.19      c-0.285-0.668-0.986-0.817-1.515-1.067c-0.832-0.393-1.525-0.936-2.259-1.457c-0.756-0.538-1.557-1.059-2.414-1.393      c-0.606-0.236-1.027-0.688-1.485-1.04c-0.875-0.672-1.842-1.169-2.783-1.695c-1.118-0.626-2.044-1.513-3.235-2.069      c-0.805-0.376-1.57-1.015-2.351-1.541c-0.735-0.495-1.538-0.895-2.249-1.4c-0.77-0.547-1.536-1.09-2.356-1.557      c-1.11-0.632-2.196-1.297-3.143-2.168c-0.11-0.101-0.35-0.045-0.497-0.123c-0.309-0.165-0.466-0.319-0.379-0.8      c0.21-1.166,1.073-2.034,1.344-3.096c0.303-1.186,1.081-2.117,1.382-3.288c0.185-0.723,0.727-1.349,1.063-2.042      c0.449-0.927,1.305-1.604,1.513-2.695c0.098-0.515,0.647-0.908,0.98-1.299c0.666-0.781,1.042-1.764,1.855-2.441      c0.994-0.828,1.451-2.133,2.509-2.935c0.769-0.582,1.553-1.122,2.374-1.632c0.617-0.384,1.309-0.735,1.806-1.305      c0.371-0.425,0.896-0.625,1.369-0.803c0.804-0.302,1.504-0.843,2.309-1.064c0.812-0.222,1.683-0.424,2.422-0.718      c1.479-0.588,2.938-0.352,4.385-0.318c1.309,0.031,2.6,0.448,3.763,1.153c0.515,0.312,1.078,0.559,1.64,0.78      c1.794,0.708,3.257,1.907,4.766,3.063c1.047,0.803,1.988,1.713,2.974,2.579c0.352,0.309,0.684,0.642,0.756,1.152      c0.019,0.134,0.12,0.303,0.234,0.369c0.775,0.452,1.1,1.292,1.562,1.967c0.587,0.857,1.274,1.723,1.442,2.817      c0.028,0.183,0.16,0.297,0.238,0.443C257.479,294.243,257.742,295.299,258.087,296.319z" style="fill:#F5FAF4;"/><path d="M258.087,296.319      c0.121,0.675-0.327,1.258-0.643,1.596c-0.701,0.751-1.088,1.632-1.601,2.47c-0.296,0.485-0.73,0.936-1.072,1.431      c-0.509,0.736-1.038,1.449-1.438,2.261c-0.344,0.696-1.016,1.158-1.442,1.834c-0.792,1.257-1.596,2.512-2.437,3.734      c-0.411,0.597-0.894,1.166-1.228,1.808c-0.584,1.119-1.628,1.933-2.025,3.176c-0.163,0.511-0.643,0.857-0.966,1.279      c-0.564,0.737-1.013,1.553-1.623,2.26c-0.48,0.557-0.858,1.207-1.235,1.844c-0.329,0.557-0.588,0.519-1.161,0.27      c-0.723-0.314-1.225-0.947-1.97-1.193c-0.111-0.037-0.26-0.099-0.299-0.19c-0.285-0.668-0.986-0.817-1.515-1.067      c-0.832-0.393-1.525-0.936-2.259-1.457c-0.756-0.538-1.557-1.059-2.414-1.393c-0.606-0.236-1.027-0.688-1.485-1.04      c-0.875-0.672-1.842-1.169-2.783-1.695c-1.118-0.626-2.044-1.513-3.235-2.069c-0.805-0.376-1.57-1.015-2.351-1.541      c-0.735-0.495-1.538-0.895-2.249-1.4c-0.77-0.547-1.536-1.09-2.356-1.557c-1.11-0.632-2.196-1.297-3.143-2.168      c-0.11-0.101-0.35-0.045-0.497-0.123c-0.309-0.165-0.466-0.319-0.379-0.8c0.21-1.166,1.073-2.034,1.344-3.096      c0.303-1.186,1.081-2.117,1.382-3.288c0.185-0.723,0.727-1.349,1.063-2.042c0.449-0.927,1.305-1.604,1.513-2.695      c0.098-0.515,0.647-0.908,0.98-1.299c0.666-0.781,1.042-1.764,1.855-2.441c0.994-0.828,1.451-2.133,2.509-2.935      c0.769-0.582,1.553-1.122,2.374-1.632c0.617-0.384,1.309-0.735,1.806-1.305c0.371-0.425,0.896-0.625,1.369-0.803      c0.804-0.302,1.504-0.843,2.309-1.064c0.812-0.222,1.683-0.424,2.422-0.718c1.479-0.588,2.938-0.352,4.385-0.318      c1.309,0.031,2.6,0.448,3.763,1.153c0.515,0.312,1.078,0.559,1.64,0.78c1.794,0.708,3.257,1.907,4.766,3.063      c1.047,0.803,1.988,1.713,2.974,2.579c0.352,0.309,0.684,0.642,0.756,1.152c0.019,0.134,0.12,0.303,0.234,0.369      c0.775,0.452,1.1,1.292,1.562,1.967c0.587,0.857,1.274,1.723,1.442,2.817c0.028,0.183,0.16,0.297,0.238,0.443      C257.479,294.243,257.742,295.299,258.087,296.319z" style="fill:#E34F50;adobe-blending-mode:multiply;enable-background:new    ;"/></g><g style="adobe-blending-mode:normal;"><path d="M329.407,340.85c0,0.323-0.018,0.648,0.003,0.97c0.096,1.441-0.282,2.779-0.834,4.089      c-0.174,0.414-0.288,0.9-0.371,1.295c-0.201,0.948-1.001,1.499-1.239,2.391c-0.287,1.077-1.32,1.613-2.003,2.402      c-0.592,0.684-1.247,1.329-1.952,1.895c-0.708,0.568-1.441,1.115-2.267,1.531c-0.534,0.269-0.888,0.842-1.476,1.05      c-1.397,0.494-2.417,1.767-3.975,1.915c-0.307,0.029-0.436,0.301-0.676,0.429c-0.815,0.433-1.807,0.394-2.555,0.809      c-0.907,0.503-1.983,0.079-2.798,0.754c-0.142,0.118-0.432,0.074-0.654,0.076c-0.97,0.007-1.953-0.095-2.907,0.033      c-0.885,0.118-1.539-0.411-2.299-0.605c-0.368-0.094-0.721-0.683-0.865-1.119c-0.266-0.805-1.021-1.279-1.277-2.038      c-0.263-0.781-1.01-1.219-1.235-2.029c-0.135-0.485-0.56-0.913-0.866-1.301c-0.462-0.585-0.869-1.226-1.357-1.8      c-0.386-0.453-0.559-1.107-0.95-1.616c-0.694-0.905-1.367-1.837-1.798-2.899c-0.312-0.77-0.864-1.406-1.329-2.029      c-0.449-0.601-0.834-1.234-1.201-1.87c-0.781-1.353-1.942-2.438-2.529-3.954c-0.244-0.63-0.761-1.306-1.312-1.866      c-0.445-0.452-0.783-1.05-1.029-1.642c-0.122-0.294-0.486-0.654-0.338-0.887c0.299-0.468,0.848-0.719,1.349-0.964      c0.623-0.305,1.313-0.491,1.748-1.092c0.259-0.357,0.708-0.362,1.059-0.484c0.661-0.229,1.213-0.59,1.744-1.014      c0.706-0.564,1.574-0.84,2.336-1.306c0.789-0.482,1.61-0.911,2.417-1.364c1.197-0.671,2.339-1.44,3.618-1.963      c0.374-0.153,0.762-0.367,1.032-0.657c0.463-0.497,1.052-0.737,1.654-0.907c0.514-0.145,0.936-0.429,1.325-0.728      c0.872-0.668,1.823-1.163,2.812-1.624c0.788-0.367,1.457-0.946,2.252-1.333c1.23-0.599,2.285-1.537,3.638-1.908      c0.273-0.075,0.348-0.34,0.518-0.513c0.434-0.443,1.018-0.531,1.428-0.073c0.896,1.001,1.986,1.792,2.714,2.993      c0.594,0.98,1.68,1.648,2.413,2.562c1.304,1.624,2.78,3.118,3.775,4.988c0.249,0.468,0.729,0.791,0.983,1.331      c0.625,1.331,1.476,2.535,2.002,3.942c0.392,1.049,0.6,2.177,1.178,3.161c0.103,0.176,0.083,0.436,0.086,0.657      c0.009,0.771,0.004,1.542,0.004,2.313C329.405,340.85,329.406,340.85,329.407,340.85z" style="fill:#F5FAF4;"/><path d="M329.407,340.85      c0,0.323-0.018,0.648,0.003,0.97c0.096,1.441-0.282,2.779-0.834,4.089c-0.174,0.414-0.288,0.9-0.371,1.295      c-0.201,0.948-1.001,1.499-1.239,2.391c-0.287,1.077-1.32,1.613-2.003,2.402c-0.592,0.684-1.247,1.329-1.952,1.895      c-0.708,0.568-1.441,1.115-2.267,1.531c-0.534,0.269-0.888,0.842-1.476,1.05c-1.397,0.494-2.417,1.767-3.975,1.915      c-0.307,0.029-0.436,0.301-0.676,0.429c-0.815,0.433-1.807,0.394-2.555,0.809c-0.907,0.503-1.983,0.079-2.798,0.754      c-0.142,0.118-0.432,0.074-0.654,0.076c-0.97,0.007-1.953-0.095-2.907,0.033c-0.885,0.118-1.539-0.411-2.299-0.605      c-0.368-0.094-0.721-0.683-0.865-1.119c-0.266-0.805-1.021-1.279-1.277-2.038c-0.263-0.781-1.01-1.219-1.235-2.029      c-0.135-0.485-0.56-0.913-0.866-1.301c-0.462-0.585-0.869-1.226-1.357-1.8c-0.386-0.453-0.559-1.107-0.95-1.616      c-0.694-0.905-1.367-1.837-1.798-2.899c-0.312-0.77-0.864-1.406-1.329-2.029c-0.449-0.601-0.834-1.234-1.201-1.87      c-0.781-1.353-1.942-2.438-2.529-3.954c-0.244-0.63-0.761-1.306-1.312-1.866c-0.445-0.452-0.783-1.05-1.029-1.642      c-0.122-0.294-0.486-0.654-0.338-0.887c0.299-0.468,0.848-0.719,1.349-0.964c0.623-0.305,1.313-0.491,1.748-1.092      c0.259-0.357,0.708-0.362,1.059-0.484c0.661-0.229,1.213-0.59,1.744-1.014c0.706-0.564,1.574-0.84,2.336-1.306      c0.789-0.482,1.61-0.911,2.417-1.364c1.197-0.671,2.339-1.44,3.618-1.963c0.374-0.153,0.762-0.367,1.032-0.657      c0.463-0.497,1.052-0.737,1.654-0.907c0.514-0.145,0.936-0.429,1.325-0.728c0.872-0.668,1.823-1.163,2.812-1.624      c0.788-0.367,1.457-0.946,2.252-1.333c1.23-0.599,2.285-1.537,3.638-1.908c0.273-0.075,0.348-0.34,0.518-0.513      c0.434-0.443,1.018-0.531,1.428-0.073c0.896,1.001,1.986,1.792,2.714,2.993c0.594,0.98,1.68,1.648,2.413,2.562      c1.304,1.624,2.78,3.118,3.775,4.988c0.249,0.468,0.729,0.791,0.983,1.331c0.625,1.331,1.476,2.535,2.002,3.942      c0.392,1.049,0.6,2.177,1.178,3.161c0.103,0.176,0.083,0.436,0.086,0.657c0.009,0.771,0.004,1.542,0.004,2.313      C329.405,340.85,329.406,340.85,329.407,340.85z" style="fill:#E34F50;adobe-blending-mode:multiply;enable-background:new    ;"/></g><g style="adobe-blending-mode:normal;"><path d="M253.735,381.352c0,5.023,0.001,10.046,0,15.069c0,1.168-0.036,1.193-1.224,1.208      c-0.534,0.007-1.082-0.1-1.555,0.328c-0.15,0.136-0.473,0.09-0.719,0.11c-0.918,0.075-1.888-0.228-2.732,0.395      c-0.086,0.063-0.243,0.048-0.365,0.041c-2.682-0.155-5.342,0.276-8.018,0.297c-1.958,0.016-3.89-0.46-5.854-0.291      c-0.846-0.706-1.967-0.329-2.935-0.767c-0.854-0.387-1.841-0.582-2.697-1.021c-1.451-0.744-3.116-1.109-4.285-2.362      c-0.231-0.248-0.572-0.26-0.85-0.421c-1.072-0.62-1.397-1.792-2.066-2.696c-1.111-1.501-1.304-3.303-1.208-5.114      c0.035-0.664-0.366-1.175-0.415-1.764c-0.083-1.012-0.275-2.123,0.038-3.036c0.48-1.402,0.156-2.801,0.396-4.165      c0.224-1.272,0.522-2.531,0.992-3.774c0.404-1.068,1.12-2.007,1.318-3.134c0.085-0.48,0.387-0.809,0.617-1.148      c0.887-1.31,1.853-2.564,3.047-3.63c0.389-0.347,0.771-0.454,1.264-0.453c8.405,0.009,16.809,0.007,25.214,0.007      c0.323,0,0.647-0.001,0.97,0.001c1.048,0.005,1.069,0.022,1.07,1.101C253.736,371.207,253.735,376.28,253.735,381.352z" style="fill:#F5FAF4;"/><path d="M253.735,381.352      c0,5.023,0.001,10.046,0,15.069c0,1.168-0.036,1.193-1.224,1.208c-0.534,0.007-1.082-0.1-1.555,0.328      c-0.15,0.136-0.473,0.09-0.719,0.11c-0.918,0.075-1.888-0.228-2.732,0.395c-0.086,0.063-0.243,0.048-0.365,0.041      c-2.682-0.155-5.342,0.276-8.018,0.297c-1.958,0.016-3.89-0.46-5.854-0.291c-0.846-0.706-1.967-0.329-2.935-0.767      c-0.854-0.387-1.841-0.582-2.697-1.021c-1.451-0.744-3.116-1.109-4.285-2.362c-0.231-0.248-0.572-0.26-0.85-0.421      c-1.072-0.62-1.397-1.792-2.066-2.696c-1.111-1.501-1.304-3.303-1.208-5.114c0.035-0.664-0.366-1.175-0.415-1.764      c-0.083-1.012-0.275-2.123,0.038-3.036c0.48-1.402,0.156-2.801,0.396-4.165c0.224-1.272,0.522-2.531,0.992-3.774      c0.404-1.068,1.12-2.007,1.318-3.134c0.085-0.48,0.387-0.809,0.617-1.148c0.887-1.31,1.853-2.564,3.047-3.63      c0.389-0.347,0.771-0.454,1.264-0.453c8.405,0.009,16.809,0.007,25.214,0.007c0.323,0,0.647-0.001,0.97,0.001      c1.048,0.005,1.069,0.022,1.07,1.101C253.736,371.207,253.735,376.28,253.735,381.352z" style="fill:#E34F50;adobe-blending-mode:multiply;enable-background:new    ;"/></g></g><g><g><path d="M188.266,319.651c2.402-0.9,4.899-0.343,7.351-0.449c0.829-0.036,1.495-0.546,2.361-0.493      c1.635,0.1,3.321,0.248,4.915-0.03c2.904-0.507,5.862-0.014,8.695-0.5c2.487-0.427,4.943-0.019,7.368-0.38      c2.728-0.407,5.451-0.16,8.174-0.268c0.124-0.005,0.253-0.001,0.37-0.033c0.875-0.236,1.382,0.107,1.724,0.994      c0.659,1.711,1.34,3.411,2.352,4.965c0.39,0.598,0.433,1.378,0.854,2.007c0.472,0.704,0.863,1.482,1.197,2.248      c0.325,0.745,0.555,1.552,0.911,2.291c0.51,1.057,0.948,2.158,1.654,3.108c0.21,0.283,0.297,0.637,0.398,0.925      c0.389,1.112,1.051,2.089,1.436,3.203c0.353,1.021,0.87,1.988,1.355,2.959c0.504,1.009,1.043,2.001,1.591,2.986      c0.404,0.726,0.713,1.508,1,2.268c0.317,0.841,0.724,1.625,1.107,2.427c0.477,0.999,0.949,2,1.464,2.98      c0.132,0.252,0.22,0.494,0.035,0.675c-0.272,0.266-0.422-0.105-0.493-0.239c-0.275-0.524-0.868-0.586-1.282-0.773      c-1.198-0.539-2.456-1.126-3.399-1.909c-1.153-0.958-2.554-1.351-3.742-2.199c-1.028-0.735-2.069-1.69-3.478-1.909      c-0.472-0.073-0.894-0.568-1.305-0.911c-0.728-0.607-1.461-0.439-1.663,0.461c-0.11,0.49-0.44,0.825-0.692,1.191      c-0.896,1.3-1.703,2.641-2.381,4.068c-0.263,0.555-0.819,0.908-1.066,1.527c-0.379,0.952-1.137,1.715-1.46,2.721      c-0.121,0.378-0.389,0.745-0.679,1.025c-0.466,0.449-0.606,1.047-0.881,1.586c-0.621,1.219-1.058,2.548-2.075,3.533      c-0.288,0.279-0.254,0.68-0.411,1.013c-0.655,1.391-1.369,2.747-2.142,4.076c-0.194,0.333-0.366,0.708-0.427,1.084      c-0.119,0.742-0.557,1.332-0.813,1.999c-0.212,0.552-0.304,1.179-0.595,1.701c-0.434,0.779-0.254,1.738-0.796,2.47      c-0.041,0.056-0.055,0.139-0.064,0.211c-0.343,2.561-0.454,5.142-0.259,7.71c0.06,0.796,0.023,1.68,0.297,2.399      c0.292,0.768,0.243,1.614,0.696,2.342c0.283,0.454,0.29,1.045,0.522,1.572c0.829,1.881,1.464,3.855,2.809,5.465      c0.258,0.308,0.211,0.759,0.57,1.02c0.126,0.092-0.013,0.279-0.182,0.311c-0.255,0.048-0.456-0.014-0.661-0.221      c-1.376-1.383-2.993-2.477-4.331-3.943c-1.224-1.342-2.69-2.522-3.887-3.899c-1.03-1.184-2.106-2.351-2.987-3.681      c-0.666-1.005-1.469-1.934-2.079-2.978c-0.631-1.081-1.322-2.135-2.01-3.165c-0.771-1.154-1.322-2.425-2.129-3.555      c-0.654-0.916-1.134-1.958-1.532-3.03c-0.241-0.648-0.559-1.283-0.942-1.857c-0.463-0.692-0.767-1.449-1.077-2.204      c-0.521-1.269-1.158-2.489-1.678-3.749c-0.399-0.967-0.878-1.976-0.897-3.064c-0.009-0.515-0.35-0.868-0.52-1.267      c-0.328-0.767-0.202-1.658-0.725-2.344c-0.043-0.056-0.073-0.137-0.074-0.208c-0.03-1.297-0.792-2.508-0.482-3.837      c0.203-0.867-0.516-1.529-0.446-2.362c0.048-0.582-0.076-1.16,0.346-1.703c0.248-0.319,0.09-0.823,0.088-1.243      c-0.006-1.186,0.441-2.252,0.787-3.357c0.179-0.57,0.346-1.145,0.559-1.706c0.477-1.257,0.798-2.557,1.477-3.757      c0.635-1.123,1.33-2.239,1.754-3.478c0.345-1.009,1.074-1.784,1.623-2.67c0.545-0.88,1.102-1.751,1.682-2.61      c0.293-0.434-0.295-0.567-0.54-0.777c-1.036-0.885-2.341-1.303-3.523-1.922c-1.026-0.537-2.018-1.146-3.081-1.623      c-0.832-0.373-1.563-0.971-2.396-1.341c-1.078-0.478-1.97-1.383-3.236-1.433C188.266,319.949,188.266,319.8,188.266,319.651z" style="fill:#E34F50;"/><path d="M188.266,319.651      c2.402-0.9,4.899-0.343,7.351-0.449c0.829-0.036,1.495-0.546,2.361-0.493c1.635,0.1,3.321,0.248,4.915-0.03      c2.904-0.507,5.862-0.014,8.695-0.5c2.487-0.427,4.943-0.019,7.368-0.38c2.728-0.407,5.451-0.16,8.174-0.268      c0.124-0.005,0.253-0.001,0.37-0.033c0.875-0.236,1.382,0.107,1.724,0.994c0.659,1.711,1.34,3.411,2.352,4.965      c0.39,0.598,0.433,1.378,0.854,2.007c0.472,0.704,0.863,1.482,1.197,2.248c0.325,0.745,0.555,1.552,0.911,2.291      c0.51,1.057,0.948,2.158,1.654,3.108c0.21,0.283,0.297,0.637,0.398,0.925c0.389,1.112,1.051,2.089,1.436,3.203      c0.353,1.021,0.87,1.988,1.355,2.959c0.504,1.009,1.043,2.001,1.591,2.986c0.404,0.726,0.713,1.508,1,2.268      c0.317,0.841,0.724,1.625,1.107,2.427c0.477,0.999,0.949,2,1.464,2.98c0.132,0.252,0.22,0.494,0.035,0.675      c-0.272,0.266-0.422-0.105-0.493-0.239c-0.275-0.524-0.868-0.586-1.282-0.773c-1.198-0.539-2.456-1.126-3.399-1.909      c-1.153-0.958-2.554-1.351-3.742-2.199c-1.028-0.735-2.069-1.69-3.478-1.909c-0.472-0.073-0.894-0.568-1.305-0.911      c-0.728-0.607-1.461-0.439-1.663,0.461c-0.11,0.49-0.44,0.825-0.692,1.191c-0.896,1.3-1.703,2.641-2.381,4.068      c-0.263,0.555-0.819,0.908-1.066,1.527c-0.379,0.952-1.137,1.715-1.46,2.721c-0.121,0.378-0.389,0.745-0.679,1.025      c-0.466,0.449-0.606,1.047-0.881,1.586c-0.621,1.219-1.058,2.548-2.075,3.533c-0.288,0.279-0.254,0.68-0.411,1.013      c-0.655,1.391-1.369,2.747-2.142,4.076c-0.194,0.333-0.366,0.708-0.427,1.084c-0.119,0.742-0.557,1.332-0.813,1.999      c-0.212,0.552-0.304,1.179-0.595,1.701c-0.434,0.779-0.254,1.738-0.796,2.47c-0.041,0.056-0.055,0.139-0.064,0.211      c-0.343,2.561-0.454,5.142-0.259,7.71c0.06,0.796,0.023,1.68,0.297,2.399c0.292,0.768,0.243,1.614,0.696,2.342      c0.283,0.454,0.29,1.045,0.522,1.572c0.829,1.881,1.464,3.855,2.809,5.465c0.258,0.308,0.211,0.759,0.57,1.02      c0.126,0.092-0.013,0.279-0.182,0.311c-0.255,0.048-0.456-0.014-0.661-0.221c-1.376-1.383-2.993-2.477-4.331-3.943      c-1.224-1.342-2.69-2.522-3.887-3.899c-1.03-1.184-2.106-2.351-2.987-3.681c-0.666-1.005-1.469-1.934-2.079-2.978      c-0.631-1.081-1.322-2.135-2.01-3.165c-0.771-1.154-1.322-2.425-2.129-3.555c-0.654-0.916-1.134-1.958-1.532-3.03      c-0.241-0.648-0.559-1.283-0.942-1.857c-0.463-0.692-0.767-1.449-1.077-2.204c-0.521-1.269-1.158-2.489-1.678-3.749      c-0.399-0.967-0.878-1.976-0.897-3.064c-0.009-0.515-0.35-0.868-0.52-1.267c-0.328-0.767-0.202-1.658-0.725-2.344      c-0.043-0.056-0.073-0.137-0.074-0.208c-0.03-1.297-0.792-2.508-0.482-3.837c0.203-0.867-0.516-1.529-0.446-2.362      c0.048-0.582-0.076-1.16,0.346-1.703c0.248-0.319,0.09-0.823,0.088-1.243c-0.006-1.186,0.441-2.252,0.787-3.357      c0.179-0.57,0.346-1.145,0.559-1.706c0.477-1.257,0.798-2.557,1.477-3.757c0.635-1.123,1.33-2.239,1.754-3.478      c0.345-1.009,1.074-1.784,1.623-2.67c0.545-0.88,1.102-1.751,1.682-2.61c0.293-0.434-0.295-0.567-0.54-0.777      c-1.036-0.885-2.341-1.303-3.523-1.922c-1.026-0.537-2.018-1.146-3.081-1.623c-0.832-0.373-1.563-0.971-2.396-1.341      c-1.078-0.478-1.97-1.383-3.236-1.433C188.266,319.949,188.266,319.8,188.266,319.651z" style="fill:#E34F50;adobe-blending-mode:multiply;enable-background:new    ;"/></g><g><path d="M251.738,266.754c0.752-0.016,1.537,0.198,2.22-0.341c0.146-0.115,0.434-0.064,0.657-0.064      c3.109-0.001,6.245-0.242,9.318,0.093c2.014,0.219,4.055,0.057,6.009,0.449c1.101,0.221,2.31-0.001,3.231,0.433      c1.125,0.53,2.408-0.073,3.389,0.757c0.017,0.015,0.049,0.024,0.071,0.02c1.111-0.222,2.07,0.459,3.155,0.527      c0.893,0.056,1.817,0.211,2.708,0.578c0.615,0.253,1.347,0.34,2.019,0.552c0.707,0.223,1.382,0.538,2.08,0.753      c0.878,0.272,1.727,0.636,2.618,0.855c0.853,0.21,1.529,0.759,2.258,1.176c0.828,0.474,1.592,1.065,2.435,1.54      c0.519,0.292,0.946,0.784,1.347,1.245c1.049,1.204,2.326,2.178,3.369,3.378c0.582,0.67,1.011,1.473,1.505,2.218      c0.6,0.904,1.235,1.789,1.783,2.723c0.673,1.147,1.271,2.337,1.905,3.507c0.683,1.261,1.185,2.598,1.706,3.929      c0.196,0.501,0.956,0.557,1.58,0.043c0.625-0.515,1.408-0.633,2.092-0.993c0.697-0.366,1.377-0.785,2.094-1.127      c0.692-0.33,1.417-0.608,2.105-0.963c1.029-0.531,2.006-1.179,3.09-1.596c0.842-0.324,1.587-0.888,2.507-1.008      c0.212-0.028,0.366-0.118,0.505-0.277c0.148-0.169,0.366-0.199,0.544-0.086c0.247,0.156,0.039,0.329-0.014,0.51      c-0.225,0.765-0.86,1.266-1.223,1.958c-0.712,1.358-1.65,2.592-2.412,3.935c-0.358,0.632-0.708,1.334-1.284,1.829      c-0.32,0.275-0.231,0.675-0.44,0.997c-0.595,0.916-1.399,1.73-1.858,2.667c-0.437,0.894-0.891,1.837-1.481,2.555      c-0.744,0.905-1.039,2.017-1.779,2.917c-0.642,0.78-1.136,1.74-1.652,2.647c-0.437,0.768-0.808,1.606-1.361,2.289      c-0.726,0.897-1.198,1.933-1.828,2.875c-0.508,0.76-0.908,1.604-1.57,2.255c-0.136,0.134-0.185,0.281-0.234,0.449      c-0.294,1.011-0.955,1.813-1.635,2.558c-0.367,0.402-0.594,0.902-0.729,1.314c-0.216,0.657-0.83,1.015-0.986,1.696      c-0.064,0.28-0.412,0.877-0.993,0.357c-0.123-0.11-0.378-0.081-0.574-0.099c-1.286-0.116-2.607,0.261-3.862-0.408      c-0.37-0.197-0.933-0.003-1.401-0.051c-2.165-0.222-4.327-0.468-6.491-0.702c-0.222-0.024-0.448-0.047-0.669-0.033      c-2.224,0.142-4.371-0.758-6.603-0.479c-1.144-0.679-2.484-0.113-3.605-0.487c-1.446-0.482-2.945-0.058-4.289-0.472      c-1.287-0.396-2.633,0.006-3.768-0.431c-1.714-0.66-3.495-0.027-5.177-0.622c-0.555-0.196-1.233-0.038-1.854-0.057      c-0.238-0.007-0.577,0.078-0.666-0.194c-0.103-0.314,0.263-0.513,0.456-0.587c0.895-0.345,1.611-1.055,2.556-1.271      c0.854-0.196,1.475-0.819,2.27-1.14c0.951-0.383,1.76-1.117,2.761-1.39c0.841-0.229,1.486-0.791,2.265-1.125      c1.215-0.522,2.329-1.279,3.493-1.922c0.848-0.469,1.705-0.921,2.566-1.367c0.172-0.089,0.299-0.125,0.199-0.371      c-0.484-1.196-1.077-2.331-1.778-3.417c-0.341-0.529-0.642-1.109-0.827-1.708c-0.248-0.8-0.702-1.487-1.081-2.207      c-0.459-0.871-0.989-1.713-1.328-2.634c-0.409-1.111-1.12-2.03-1.715-3.024c-0.335-0.561-0.641-1.132-0.859-1.757      c-0.371-1.063-1.055-1.96-1.717-2.849c-0.268-0.36-0.404-0.777-0.601-1.145c-0.699-1.3-1.482-2.524-2.444-3.641      c-0.151-0.176-0.144-0.48-0.283-0.674c-0.926-1.296-1.783-2.656-2.842-3.835c-0.662-0.737-1.384-1.473-2.134-2.106      c-0.746-0.629-1.626-1.131-2.405-1.763c-1.559-1.265-3.489-1.894-5.228-2.852c-0.825-0.454-1.888-0.632-2.841-0.928      c-1.037-0.322-2.171-0.229-3.145-0.791c-0.175-0.101-0.445-0.102-0.657-0.066c-1.602,0.267-3.097-0.51-4.674-0.469      c-0.146,0.004-0.325-0.03-0.345-0.213c-0.022-0.195,0.155-0.21,0.298-0.255c1.265-0.398,2.588-0.605,3.81-1.147      c0.045-0.02,0.099-0.041,0.144-0.033c1.107,0.185,2.192-0.277,3.123-0.595c1.135-0.388,2.352,0.007,3.418-0.672      C250.475,266.628,251.169,266.788,251.738,266.754z" style="fill:#E34F50;"/><path d="M251.738,266.754      c0.752-0.016,1.537,0.198,2.22-0.341c0.146-0.115,0.434-0.064,0.657-0.064c3.109-0.001,6.245-0.242,9.318,0.093      c2.014,0.219,4.055,0.057,6.009,0.449c1.101,0.221,2.31-0.001,3.231,0.433c1.125,0.53,2.408-0.073,3.389,0.757      c0.017,0.015,0.049,0.024,0.071,0.02c1.111-0.222,2.07,0.459,3.155,0.527c0.893,0.056,1.817,0.211,2.708,0.578      c0.615,0.253,1.347,0.34,2.019,0.552c0.707,0.223,1.382,0.538,2.08,0.753c0.878,0.272,1.727,0.636,2.618,0.855      c0.853,0.21,1.529,0.759,2.258,1.176c0.828,0.474,1.592,1.065,2.435,1.54c0.519,0.292,0.946,0.784,1.347,1.245      c1.049,1.204,2.326,2.178,3.369,3.378c0.582,0.67,1.011,1.473,1.505,2.218c0.6,0.904,1.235,1.789,1.783,2.723      c0.673,1.147,1.271,2.337,1.905,3.507c0.683,1.261,1.185,2.598,1.706,3.929c0.196,0.501,0.956,0.557,1.58,0.043      c0.625-0.515,1.408-0.633,2.092-0.993c0.697-0.366,1.377-0.785,2.094-1.127c0.692-0.33,1.417-0.608,2.105-0.963      c1.029-0.531,2.006-1.179,3.09-1.596c0.842-0.324,1.587-0.888,2.507-1.008c0.212-0.028,0.366-0.118,0.505-0.277      c0.148-0.169,0.366-0.199,0.544-0.086c0.247,0.156,0.039,0.329-0.014,0.51c-0.225,0.765-0.86,1.266-1.223,1.958      c-0.712,1.358-1.65,2.592-2.412,3.935c-0.358,0.632-0.708,1.334-1.284,1.829c-0.32,0.275-0.231,0.675-0.44,0.997      c-0.595,0.916-1.399,1.73-1.858,2.667c-0.437,0.894-0.891,1.837-1.481,2.555c-0.744,0.905-1.039,2.017-1.779,2.917      c-0.642,0.78-1.136,1.74-1.652,2.647c-0.437,0.768-0.808,1.606-1.361,2.289c-0.726,0.897-1.198,1.933-1.828,2.875      c-0.508,0.76-0.908,1.604-1.57,2.255c-0.136,0.134-0.185,0.281-0.234,0.449c-0.294,1.011-0.955,1.813-1.635,2.558      c-0.367,0.402-0.594,0.902-0.729,1.314c-0.216,0.657-0.83,1.015-0.986,1.696c-0.064,0.28-0.412,0.877-0.993,0.357      c-0.123-0.11-0.378-0.081-0.574-0.099c-1.286-0.116-2.607,0.261-3.862-0.408c-0.37-0.197-0.933-0.003-1.401-0.051      c-2.165-0.222-4.327-0.468-6.491-0.702c-0.222-0.024-0.448-0.047-0.669-0.033c-2.224,0.142-4.371-0.758-6.603-0.479      c-1.144-0.679-2.484-0.113-3.605-0.487c-1.446-0.482-2.945-0.058-4.289-0.472c-1.287-0.396-2.633,0.006-3.768-0.431      c-1.714-0.66-3.495-0.027-5.177-0.622c-0.555-0.196-1.233-0.038-1.854-0.057c-0.238-0.007-0.577,0.078-0.666-0.194      c-0.103-0.314,0.263-0.513,0.456-0.587c0.895-0.345,1.611-1.055,2.556-1.271c0.854-0.196,1.475-0.819,2.27-1.14      c0.951-0.383,1.76-1.117,2.761-1.39c0.841-0.229,1.486-0.791,2.265-1.125c1.215-0.522,2.329-1.279,3.493-1.922      c0.848-0.469,1.705-0.921,2.566-1.367c0.172-0.089,0.299-0.125,0.199-0.371c-0.484-1.196-1.077-2.331-1.778-3.417      c-0.341-0.529-0.642-1.109-0.827-1.708c-0.248-0.8-0.702-1.487-1.081-2.207c-0.459-0.871-0.989-1.713-1.328-2.634      c-0.409-1.111-1.12-2.03-1.715-3.024c-0.335-0.561-0.641-1.132-0.859-1.757c-0.371-1.063-1.055-1.96-1.717-2.849      c-0.268-0.36-0.404-0.777-0.601-1.145c-0.699-1.3-1.482-2.524-2.444-3.641c-0.151-0.176-0.144-0.48-0.283-0.674      c-0.926-1.296-1.783-2.656-2.842-3.835c-0.662-0.737-1.384-1.473-2.134-2.106c-0.746-0.629-1.626-1.131-2.405-1.763      c-1.559-1.265-3.489-1.894-5.228-2.852c-0.825-0.454-1.888-0.632-2.841-0.928c-1.037-0.322-2.171-0.229-3.145-0.791      c-0.175-0.101-0.445-0.102-0.657-0.066c-1.602,0.267-3.097-0.51-4.674-0.469c-0.146,0.004-0.325-0.03-0.345-0.213      c-0.022-0.195,0.155-0.21,0.298-0.255c1.265-0.398,2.588-0.605,3.81-1.147c0.045-0.02,0.099-0.041,0.144-0.033      c1.107,0.185,2.192-0.277,3.123-0.595c1.135-0.388,2.352,0.007,3.418-0.672C250.475,266.628,251.169,266.788,251.738,266.754z" style="fill:#E34F50;adobe-blending-mode:multiply;enable-background:new    ;"/></g><g><path d="M285.759,355.323c-0.001,2.811,0.017,5.622-0.013,8.432c-0.008,0.689,0.166,0.962,0.911,0.958      c5.547-0.028,11.094-0.016,16.641-0.017c2.367-0.746,4.831-0.165,7.206-0.506c1.868-0.268,3.712-0.14,5.564-0.233      c0.54-0.027,1.057,0.006,1.56-0.344c0.262-0.183,0.733-0.154,1.09-0.095c1.286,0.212,2.56-0.11,3.662-0.554      c1.153-0.464,2.334-0.975,3.409-1.744c1.329-0.95,2.418-2.108,3.555-3.227c0.609-0.599,1.294-1.145,1.816-1.809      c0.652-0.829,1.231-1.746,1.669-2.704c0.303-0.663,1.066-1.073,1.024-1.909c-0.002-0.042,0.101-0.126,0.156-0.127      c0.152-0.001,0.222,0.133,0.213,0.252c-0.105,1.478,0.382,2.974-0.303,4.45c-0.259,0.559-0.357,1.255-0.489,1.881      c-0.138,0.657-0.381,1.304-0.653,1.837c-0.439,0.86-0.478,1.838-1.012,2.655c-0.418,0.639-0.691,1.376-1.006,2.079      c-0.384,0.858-0.74,1.729-1.118,2.59c-0.332,0.757-0.671,1.519-1.183,2.172c-0.483,0.616-0.865,1.268-1.12,2.012      c-0.15,0.437-0.436,0.821-0.678,1.222c-0.57,0.945-1.41,1.725-1.699,2.848c-0.141,0.549-0.634,0.943-0.979,1.344      c-0.988,1.152-1.601,2.546-2.589,3.711c-0.55,0.648-1.418,1.203-1.577,2.22c-0.047,0.302-0.429,0.606-0.728,0.804      c-0.932,0.618-1.298,1.686-2.019,2.451c-1.357,1.44-2.851,2.752-4.233,4.17c-0.652,0.669-1.242,1.347-2.145,1.734      c-0.42,0.18-0.797,0.605-1.157,0.913c-1.269,1.086-2.884,1.451-4.278,2.257c-0.496,0.287-1.154,0.558-1.832,0.637      c-0.631,0.073-1.237,0.358-1.885,0.49c-0.741,0.15-1.545,0.006-2.188,0.266c-1.301,0.527-2.685,0.102-3.915,0.466      c-2.459,0.727-4.922,0.185-7.371,0.374c-0.539,0.042-0.845-0.47-1.387-0.453c-0.852,0.027-0.947,0.063-0.946,0.917      c0.006,4.403,0.017,8.806,0.025,13.209c0,0.248-0.007,0.497-0.028,0.745c-0.017,0.195-0.134,0.32-0.337,0.333      c-0.205,0.014-0.465,0.005-0.497-0.222c-0.105-0.764-0.829-1.098-1.169-1.727c-0.519-0.959-1.102-1.919-1.762-2.828      c-1.169-1.61-2.244-3.307-3.31-4.99c-0.789-1.244-1.687-2.431-2.388-3.745c-0.585-1.097-1.21-2.202-2.07-3.129      c-0.507-0.546-0.63-1.305-1.129-1.87c-0.524-0.593-0.911-1.305-1.37-1.956c-0.213-0.302-0.454-0.577-0.577-0.941      c-0.342-1.009-1.052-1.787-1.734-2.562c-0.286-0.325-0.346-0.727-0.577-1.073c-0.738-1.104-1.485-2.204-2.229-3.305      c-0.719-1.063-1.31-2.209-2.149-3.196c-0.324-0.381-0.621-0.833-0.768-1.303c-0.22-0.707,0.293-1.292,0.676-1.765      c0.891-1.099,1.517-2.364,2.348-3.484c0.504-0.679,0.893-1.435,1.458-2.079c0.423-0.482,0.746-1.081,0.993-1.678      c0.217-0.523,0.648-0.863,0.967-1.271c0.826-1.054,1.39-2.267,2.197-3.337c0.728-0.966,1.469-1.968,1.974-3.107      c0.227-0.513,0.753-0.817,1.021-1.381c0.647-1.361,1.644-2.529,2.485-3.778c0.716-1.063,1.299-2.232,2.229-3.186      c0.384-0.394,0.855-1.007,0.941-1.698c0.012-0.095,0.04-0.219,0.107-0.27c0.9-0.702,1.438-1.716,1.983-2.647      c0.688-1.177,1.593-2.192,2.256-3.372c0.061-0.109,0.096-0.254,0.247-0.205c0.073,0.023,0.15,0.14,0.162,0.223      c0.034,0.245,0.05,0.494,0.05,0.742C285.76,349.701,285.759,352.512,285.759,355.323z" style="fill:#E34F50;"/><path d="M285.759,355.323      c-0.001,2.811,0.017,5.622-0.013,8.432c-0.008,0.689,0.166,0.962,0.911,0.958c5.547-0.028,11.094-0.016,16.641-0.017      c2.367-0.746,4.831-0.165,7.206-0.506c1.868-0.268,3.712-0.14,5.564-0.233c0.54-0.027,1.057,0.006,1.56-0.344      c0.262-0.183,0.733-0.154,1.09-0.095c1.286,0.212,2.56-0.11,3.662-0.554c1.153-0.464,2.334-0.975,3.409-1.744      c1.329-0.95,2.418-2.108,3.555-3.227c0.609-0.599,1.294-1.145,1.816-1.809c0.652-0.829,1.231-1.746,1.669-2.704      c0.303-0.663,1.066-1.073,1.024-1.909c-0.002-0.042,0.101-0.126,0.156-0.127c0.152-0.001,0.222,0.133,0.213,0.252      c-0.105,1.478,0.382,2.974-0.303,4.45c-0.259,0.559-0.357,1.255-0.489,1.881c-0.138,0.657-0.381,1.304-0.653,1.837      c-0.439,0.86-0.478,1.838-1.012,2.655c-0.418,0.639-0.691,1.376-1.006,2.079c-0.384,0.858-0.74,1.729-1.118,2.59      c-0.332,0.757-0.671,1.519-1.183,2.172c-0.483,0.616-0.865,1.268-1.12,2.012c-0.15,0.437-0.436,0.821-0.678,1.222      c-0.57,0.945-1.41,1.725-1.699,2.848c-0.141,0.549-0.634,0.943-0.979,1.344c-0.988,1.152-1.601,2.546-2.589,3.711      c-0.55,0.648-1.418,1.203-1.577,2.22c-0.047,0.302-0.429,0.606-0.728,0.804c-0.932,0.618-1.298,1.686-2.019,2.451      c-1.357,1.44-2.851,2.752-4.233,4.17c-0.652,0.669-1.242,1.347-2.145,1.734c-0.42,0.18-0.797,0.605-1.157,0.913      c-1.269,1.086-2.884,1.451-4.278,2.257c-0.496,0.287-1.154,0.558-1.832,0.637c-0.631,0.073-1.237,0.358-1.885,0.49      c-0.741,0.15-1.545,0.006-2.188,0.266c-1.301,0.527-2.685,0.102-3.915,0.466c-2.459,0.727-4.922,0.185-7.371,0.374      c-0.539,0.042-0.845-0.47-1.387-0.453c-0.852,0.027-0.947,0.063-0.946,0.917c0.006,4.403,0.017,8.806,0.025,13.209      c0,0.248-0.007,0.497-0.028,0.745c-0.017,0.195-0.134,0.32-0.337,0.333c-0.205,0.014-0.465,0.005-0.497-0.222      c-0.105-0.764-0.829-1.098-1.169-1.727c-0.519-0.959-1.102-1.919-1.762-2.828c-1.169-1.61-2.244-3.307-3.31-4.99      c-0.789-1.244-1.687-2.431-2.388-3.745c-0.585-1.097-1.21-2.202-2.07-3.129c-0.507-0.546-0.63-1.305-1.129-1.87      c-0.524-0.593-0.911-1.305-1.37-1.956c-0.213-0.302-0.454-0.577-0.577-0.941c-0.342-1.009-1.052-1.787-1.734-2.562      c-0.286-0.325-0.346-0.727-0.577-1.073c-0.738-1.104-1.485-2.204-2.229-3.305c-0.719-1.063-1.31-2.209-2.149-3.196      c-0.324-0.381-0.621-0.833-0.768-1.303c-0.22-0.707,0.293-1.292,0.676-1.765c0.891-1.099,1.517-2.364,2.348-3.484      c0.504-0.679,0.893-1.435,1.458-2.079c0.423-0.482,0.746-1.081,0.993-1.678c0.217-0.523,0.648-0.863,0.967-1.271      c0.826-1.054,1.39-2.267,2.197-3.337c0.728-0.966,1.469-1.968,1.974-3.107c0.227-0.513,0.753-0.817,1.021-1.381      c0.647-1.361,1.644-2.529,2.485-3.778c0.716-1.063,1.299-2.232,2.229-3.186c0.384-0.394,0.855-1.007,0.941-1.698      c0.012-0.095,0.04-0.219,0.107-0.27c0.9-0.702,1.438-1.716,1.983-2.647c0.688-1.177,1.593-2.192,2.256-3.372      c0.061-0.109,0.096-0.254,0.247-0.205c0.073,0.023,0.15,0.14,0.162,0.223c0.034,0.245,0.05,0.494,0.05,0.742      C285.76,349.701,285.759,352.512,285.759,355.323z" style="fill:#E34F50;adobe-blending-mode:multiply;enable-background:new    ;"/></g><g><path d="M260.856,293.896c0.121,0.675-0.327,1.258-0.643,1.596c-0.701,0.751-1.088,1.632-1.601,2.47      c-0.296,0.485-0.73,0.936-1.072,1.431c-0.509,0.736-1.038,1.449-1.438,2.261c-0.344,0.696-1.016,1.158-1.442,1.834      c-0.792,1.257-1.596,2.512-2.437,3.734c-0.411,0.597-0.894,1.166-1.228,1.808c-0.584,1.119-1.628,1.933-2.025,3.176      c-0.163,0.511-0.643,0.857-0.966,1.279c-0.564,0.737-1.013,1.553-1.623,2.26c-0.48,0.557-0.859,1.207-1.235,1.844      c-0.329,0.557-0.588,0.519-1.161,0.27c-0.723-0.314-1.225-0.947-1.97-1.193c-0.111-0.037-0.26-0.099-0.299-0.19      c-0.285-0.668-0.986-0.817-1.515-1.067c-0.832-0.393-1.525-0.936-2.259-1.457c-0.756-0.538-1.557-1.059-2.414-1.393      c-0.606-0.236-1.027-0.688-1.485-1.04c-0.875-0.672-1.842-1.169-2.783-1.695c-1.118-0.626-2.044-1.513-3.235-2.069      c-0.805-0.376-1.57-1.015-2.351-1.541c-0.735-0.495-1.538-0.895-2.249-1.4c-0.77-0.547-1.536-1.09-2.356-1.557      c-1.11-0.632-2.196-1.297-3.143-2.168c-0.11-0.101-0.35-0.045-0.497-0.123c-0.309-0.165-0.466-0.319-0.379-0.8      c0.21-1.166,1.073-2.034,1.344-3.096c0.303-1.186,1.081-2.117,1.382-3.288c0.185-0.723,0.727-1.349,1.063-2.042      c0.449-0.927,1.305-1.604,1.513-2.695c0.098-0.515,0.647-0.908,0.98-1.299c0.666-0.781,1.042-1.764,1.855-2.441      c0.994-0.828,1.451-2.133,2.509-2.935c0.769-0.582,1.553-1.122,2.374-1.632c0.617-0.384,1.309-0.735,1.806-1.305      c0.371-0.425,0.896-0.625,1.369-0.803c0.804-0.302,1.504-0.843,2.309-1.064c0.812-0.222,1.683-0.424,2.422-0.718      c1.479-0.588,2.938-0.352,4.385-0.318c1.309,0.031,2.6,0.448,3.763,1.153c0.515,0.312,1.078,0.559,1.64,0.78      c1.794,0.708,3.257,1.907,4.766,3.063c1.047,0.803,1.988,1.713,2.974,2.579c0.352,0.309,0.684,0.642,0.756,1.152      c0.019,0.134,0.12,0.303,0.234,0.369c0.775,0.452,1.1,1.292,1.562,1.967c0.587,0.857,1.274,1.723,1.442,2.817      c0.028,0.183,0.16,0.297,0.239,0.443C260.248,291.82,260.512,292.876,260.856,293.896z" style="fill:#E34F50;"/><path d="M260.856,293.896      c0.121,0.675-0.327,1.258-0.643,1.596c-0.701,0.751-1.088,1.632-1.601,2.47c-0.296,0.485-0.73,0.936-1.072,1.431      c-0.509,0.736-1.038,1.449-1.438,2.261c-0.344,0.696-1.016,1.158-1.442,1.834c-0.792,1.257-1.596,2.512-2.437,3.734      c-0.411,0.597-0.894,1.166-1.228,1.808c-0.584,1.119-1.628,1.933-2.025,3.176c-0.163,0.511-0.643,0.857-0.966,1.279      c-0.564,0.737-1.013,1.553-1.623,2.26c-0.48,0.557-0.859,1.207-1.235,1.844c-0.329,0.557-0.588,0.519-1.161,0.27      c-0.723-0.314-1.225-0.947-1.97-1.193c-0.111-0.037-0.26-0.099-0.299-0.19c-0.285-0.668-0.986-0.817-1.515-1.067      c-0.832-0.393-1.525-0.936-2.259-1.457c-0.756-0.538-1.557-1.059-2.414-1.393c-0.606-0.236-1.027-0.688-1.485-1.04      c-0.875-0.672-1.842-1.169-2.783-1.695c-1.118-0.626-2.044-1.513-3.235-2.069c-0.805-0.376-1.57-1.015-2.351-1.541      c-0.735-0.495-1.538-0.895-2.249-1.4c-0.77-0.547-1.536-1.09-2.356-1.557c-1.11-0.632-2.196-1.297-3.143-2.168      c-0.11-0.101-0.35-0.045-0.497-0.123c-0.309-0.165-0.466-0.319-0.379-0.8c0.21-1.166,1.073-2.034,1.344-3.096      c0.303-1.186,1.081-2.117,1.382-3.288c0.185-0.723,0.727-1.349,1.063-2.042c0.449-0.927,1.305-1.604,1.513-2.695      c0.098-0.515,0.647-0.908,0.98-1.299c0.666-0.781,1.042-1.764,1.855-2.441c0.994-0.828,1.451-2.133,2.509-2.935      c0.769-0.582,1.553-1.122,2.374-1.632c0.617-0.384,1.309-0.735,1.806-1.305c0.371-0.425,0.896-0.625,1.369-0.803      c0.804-0.302,1.504-0.843,2.309-1.064c0.812-0.222,1.683-0.424,2.422-0.718c1.479-0.588,2.938-0.352,4.385-0.318      c1.309,0.031,2.6,0.448,3.763,1.153c0.515,0.312,1.078,0.559,1.64,0.78c1.794,0.708,3.257,1.907,4.766,3.063      c1.047,0.803,1.988,1.713,2.974,2.579c0.352,0.309,0.684,0.642,0.756,1.152c0.019,0.134,0.12,0.303,0.234,0.369      c0.775,0.452,1.1,1.292,1.562,1.967c0.587,0.857,1.274,1.723,1.442,2.817c0.028,0.183,0.16,0.297,0.239,0.443      C260.248,291.82,260.512,292.876,260.856,293.896z" style="fill:#E34F50;adobe-blending-mode:multiply;enable-background:new    ;"/></g><g><path d="M332.176,338.427c0,0.323-0.018,0.648,0.003,0.97c0.096,1.441-0.282,2.779-0.834,4.089      c-0.174,0.414-0.288,0.9-0.371,1.295c-0.201,0.948-1.001,1.499-1.239,2.391c-0.287,1.077-1.32,1.613-2.003,2.402      c-0.592,0.684-1.247,1.329-1.952,1.895c-0.708,0.568-1.441,1.115-2.267,1.531c-0.534,0.269-0.888,0.842-1.476,1.05      c-1.397,0.494-2.417,1.767-3.975,1.915c-0.307,0.029-0.436,0.301-0.676,0.429c-0.815,0.433-1.807,0.394-2.555,0.809      c-0.907,0.503-1.983,0.079-2.798,0.754c-0.142,0.118-0.432,0.074-0.654,0.076c-0.97,0.007-1.953-0.095-2.907,0.033      c-0.885,0.118-1.539-0.411-2.299-0.605c-0.368-0.094-0.721-0.683-0.865-1.119c-0.266-0.805-1.021-1.279-1.277-2.038      c-0.263-0.781-1.01-1.219-1.235-2.029c-0.135-0.485-0.56-0.913-0.866-1.301c-0.462-0.585-0.869-1.226-1.357-1.8      c-0.386-0.453-0.559-1.107-0.95-1.616c-0.694-0.905-1.367-1.837-1.798-2.899c-0.312-0.77-0.864-1.406-1.329-2.029      c-0.449-0.601-0.834-1.234-1.201-1.87c-0.781-1.353-1.942-2.438-2.529-3.954c-0.244-0.63-0.761-1.306-1.312-1.866      c-0.445-0.452-0.783-1.05-1.029-1.642c-0.122-0.294-0.486-0.654-0.338-0.887c0.299-0.468,0.848-0.719,1.349-0.964      c0.623-0.305,1.313-0.491,1.749-1.092c0.259-0.357,0.708-0.362,1.059-0.484c0.661-0.229,1.213-0.59,1.744-1.014      c0.706-0.564,1.574-0.84,2.336-1.306c0.789-0.482,1.61-0.911,2.417-1.364c1.197-0.671,2.339-1.44,3.618-1.963      c0.374-0.153,0.762-0.367,1.032-0.657c0.463-0.497,1.052-0.737,1.654-0.907c0.514-0.145,0.936-0.429,1.325-0.728      c0.872-0.668,1.823-1.163,2.812-1.624c0.788-0.367,1.457-0.946,2.252-1.333c1.23-0.599,2.285-1.537,3.638-1.908      c0.273-0.075,0.348-0.34,0.518-0.513c0.434-0.443,1.018-0.531,1.428-0.073c0.896,1.001,1.986,1.792,2.714,2.993      c0.594,0.98,1.68,1.648,2.413,2.562c1.304,1.624,2.78,3.118,3.775,4.988c0.249,0.468,0.729,0.791,0.983,1.331      c0.625,1.331,1.476,2.535,2.002,3.942c0.392,1.049,0.6,2.177,1.178,3.161c0.103,0.176,0.083,0.435,0.086,0.657      c0.009,0.771,0.004,1.542,0.004,2.313C332.174,338.427,332.175,338.427,332.176,338.427z" style="fill:#E34F50;"/><path d="M332.176,338.427      c0,0.323-0.018,0.648,0.003,0.97c0.096,1.441-0.282,2.779-0.834,4.089c-0.174,0.414-0.288,0.9-0.371,1.295      c-0.201,0.948-1.001,1.499-1.239,2.391c-0.287,1.077-1.32,1.613-2.003,2.402c-0.592,0.684-1.247,1.329-1.952,1.895      c-0.708,0.568-1.441,1.115-2.267,1.531c-0.534,0.269-0.888,0.842-1.476,1.05c-1.397,0.494-2.417,1.767-3.975,1.915      c-0.307,0.029-0.436,0.301-0.676,0.429c-0.815,0.433-1.807,0.394-2.555,0.809c-0.907,0.503-1.983,0.079-2.798,0.754      c-0.142,0.118-0.432,0.074-0.654,0.076c-0.97,0.007-1.953-0.095-2.907,0.033c-0.885,0.118-1.539-0.411-2.299-0.605      c-0.368-0.094-0.721-0.683-0.865-1.119c-0.266-0.805-1.021-1.279-1.277-2.038c-0.263-0.781-1.01-1.219-1.235-2.029      c-0.135-0.485-0.56-0.913-0.866-1.301c-0.462-0.585-0.869-1.226-1.357-1.8c-0.386-0.453-0.559-1.107-0.95-1.616      c-0.694-0.905-1.367-1.837-1.798-2.899c-0.312-0.77-0.864-1.406-1.329-2.029c-0.449-0.601-0.834-1.234-1.201-1.87      c-0.781-1.353-1.942-2.438-2.529-3.954c-0.244-0.63-0.761-1.306-1.312-1.866c-0.445-0.452-0.783-1.05-1.029-1.642      c-0.122-0.294-0.486-0.654-0.338-0.887c0.299-0.468,0.848-0.719,1.349-0.964c0.623-0.305,1.313-0.491,1.749-1.092      c0.259-0.357,0.708-0.362,1.059-0.484c0.661-0.229,1.213-0.59,1.744-1.014c0.706-0.564,1.574-0.84,2.336-1.306      c0.789-0.482,1.61-0.911,2.417-1.364c1.197-0.671,2.339-1.44,3.618-1.963c0.374-0.153,0.762-0.367,1.032-0.657      c0.463-0.497,1.052-0.737,1.654-0.907c0.514-0.145,0.936-0.429,1.325-0.728c0.872-0.668,1.823-1.163,2.812-1.624      c0.788-0.367,1.457-0.946,2.252-1.333c1.23-0.599,2.285-1.537,3.638-1.908c0.273-0.075,0.348-0.34,0.518-0.513      c0.434-0.443,1.018-0.531,1.428-0.073c0.896,1.001,1.986,1.792,2.714,2.993c0.594,0.98,1.68,1.648,2.413,2.562      c1.304,1.624,2.78,3.118,3.775,4.988c0.249,0.468,0.729,0.791,0.983,1.331c0.625,1.331,1.476,2.535,2.002,3.942      c0.392,1.049,0.6,2.177,1.178,3.161c0.103,0.176,0.083,0.435,0.086,0.657c0.009,0.771,0.004,1.542,0.004,2.313      C332.174,338.427,332.175,338.427,332.176,338.427z" style="fill:#E34F50;adobe-blending-mode:multiply;enable-background:new    ;"/></g><g><path d="M256.504,378.929c0,5.023,0.001,10.046,0,15.069c0,1.168-0.036,1.193-1.224,1.208      c-0.534,0.007-1.082-0.1-1.555,0.328c-0.15,0.136-0.473,0.09-0.719,0.111c-0.918,0.075-1.888-0.228-2.732,0.395      c-0.086,0.063-0.243,0.048-0.365,0.041c-2.682-0.155-5.342,0.276-8.018,0.297c-1.958,0.016-3.89-0.46-5.854-0.291      c-0.846-0.706-1.967-0.329-2.935-0.767c-0.854-0.387-1.841-0.582-2.697-1.021c-1.451-0.744-3.116-1.109-4.285-2.362      c-0.231-0.248-0.572-0.26-0.85-0.421c-1.072-0.62-1.397-1.792-2.066-2.696c-1.111-1.501-1.304-3.303-1.208-5.114      c0.035-0.664-0.366-1.175-0.415-1.764c-0.083-1.012-0.275-2.123,0.038-3.036c0.48-1.402,0.156-2.801,0.396-4.165      c0.224-1.272,0.522-2.531,0.992-3.774c0.404-1.068,1.12-2.007,1.318-3.134c0.085-0.48,0.387-0.809,0.617-1.148      c0.887-1.31,1.853-2.564,3.047-3.63c0.389-0.347,0.771-0.454,1.264-0.453c8.405,0.009,16.809,0.007,25.214,0.007      c0.323,0,0.647-0.001,0.97,0.001c1.048,0.005,1.069,0.022,1.07,1.101C256.505,368.784,256.504,373.857,256.504,378.929z" style="fill:#E34F50;"/><path d="M256.504,378.929      c0,5.023,0.001,10.046,0,15.069c0,1.168-0.036,1.193-1.224,1.208c-0.534,0.007-1.082-0.1-1.555,0.328      c-0.15,0.136-0.473,0.09-0.719,0.111c-0.918,0.075-1.888-0.228-2.732,0.395c-0.086,0.063-0.243,0.048-0.365,0.041      c-2.682-0.155-5.342,0.276-8.018,0.297c-1.958,0.016-3.89-0.46-5.854-0.291c-0.846-0.706-1.967-0.329-2.935-0.767      c-0.854-0.387-1.841-0.582-2.697-1.021c-1.451-0.744-3.116-1.109-4.285-2.362c-0.231-0.248-0.572-0.26-0.85-0.421      c-1.072-0.62-1.397-1.792-2.066-2.696c-1.111-1.501-1.304-3.303-1.208-5.114c0.035-0.664-0.366-1.175-0.415-1.764      c-0.083-1.012-0.275-2.123,0.038-3.036c0.48-1.402,0.156-2.801,0.396-4.165c0.224-1.272,0.522-2.531,0.992-3.774      c0.404-1.068,1.12-2.007,1.318-3.134c0.085-0.48,0.387-0.809,0.617-1.148c0.887-1.31,1.853-2.564,3.047-3.63      c0.389-0.347,0.771-0.454,1.264-0.453c8.405,0.009,16.809,0.007,25.214,0.007c0.323,0,0.647-0.001,0.97,0.001      c1.048,0.005,1.069,0.022,1.07,1.101C256.505,368.784,256.504,373.857,256.504,378.929z" style="fill:#E34F50;adobe-blending-mode:multiply;enable-background:new    ;"/></g></g><g><g><path d="M225.26,347.964      c0.476,0.073,0.916,0.232,1.331,0.452c-0.159,0.293-0.305,0.586-0.452,0.891c-0.256,0.562-0.818,0.916-1.062,1.538      c-0.378,0.952-1.135,1.709-1.465,2.711c-0.122,0.379-0.391,0.745-0.672,1.026c-0.476,0.452-0.61,1.05-0.879,1.587      c-0.623,1.221-1.062,2.552-2.076,3.541c-0.293,0.269-0.256,0.672-0.415,1.014c-0.659,1.392-1.367,2.747-2.149,4.066      c-0.183,0.342-0.366,0.708-0.415,1.087c-0.122,0.745-0.562,1.331-0.818,2.002c-0.208,0.55-0.305,1.172-0.598,1.697      c-0.427,0.781-0.256,1.734-0.794,2.466c-0.037,0.061-0.049,0.147-0.061,0.22c-0.342,2.564-0.452,5.14-0.256,7.704      c0.061,0.745,0.012,1.587,0.256,2.283c0.012,0.049,0.024,0.086,0.037,0.122c0.293,0.769,0.244,1.612,0.696,2.332      c0.281,0.464,0.293,1.05,0.525,1.575c0.83,1.88,1.465,3.858,2.808,5.47c0.256,0.305,0.208,0.757,0.562,1.014      c0.134,0.098-0.012,0.281-0.183,0.317c-0.244,0.049-0.452-0.012-0.659-0.22c-1.026-1.038-2.198-1.917-3.272-2.906      c-0.366-0.33-0.72-0.672-1.05-1.038c-1.233-1.343-2.698-2.527-3.895-3.895c-0.977-1.123-1.99-2.234-2.833-3.48      c-0.037-1.941,0.085-3.895,0.342-5.824c0.012-0.073,0.024-0.147,0.061-0.208c0.537-0.732,0.366-1.697,0.794-2.466      c0.293-0.525,0.391-1.148,0.598-1.709c0.256-0.659,0.696-1.258,0.818-1.99c0.049-0.378,0.232-0.757,0.415-1.087      c0.781-1.331,1.49-2.686,2.149-4.078c0.159-0.33,0.122-0.733,0.415-1.013c1.013-0.989,1.453-2.308,2.076-3.529      c0.269-0.537,0.403-1.135,0.879-1.587c0.281-0.281,0.549-0.647,0.672-1.026c0.33-1.014,1.087-1.771,1.465-2.723      c0.244-0.623,0.806-0.977,1.062-1.526c0.684-1.429,1.49-2.772,2.381-4.066c0.256-0.366,0.586-0.708,0.696-1.197      c0.195-0.891,0.928-1.062,1.661-0.452C224.369,347.402,224.784,347.891,225.26,347.964z" style="fill:#E34F50;adobe-blending-mode:multiply;enable-background:new    ;"/></g><g><path d="M244.576,351.53      c-0.269,0.269-0.427-0.098-0.488-0.232c-0.281-0.525-0.867-0.586-1.282-0.781c-1.197-0.537-2.466-1.123-3.407-1.905      c-1.148-0.952-2.552-1.355-3.736-2.198c-0.818-0.574-1.636-1.306-2.65-1.685c-0.195-0.354-0.378-0.708-0.562-1.074      c-0.476-0.964-1.001-1.929-1.355-2.955c-0.378-1.111-1.038-2.088-1.429-3.199c-0.098-0.293-0.195-0.647-0.403-0.928      c-0.708-0.952-1.136-2.051-1.648-3.114c-0.354-0.733-0.586-1.538-0.916-2.283c-0.33-0.769-0.72-1.551-1.197-2.247      c-0.415-0.635-0.464-1.416-0.855-2.015c-1.013-1.551-1.685-3.248-2.344-4.957c-0.342-0.891-0.855-1.233-1.734-1.001      c-0.11,0.037-0.244,0.024-0.366,0.037c-2.723,0.11-5.446-0.134-8.168,0.269c-2.43,0.354-4.884-0.049-7.375,0.379      c-2.833,0.488-5.787-0.012-8.693,0.5c-1.026,0.183-2.088,0.183-3.15,0.122h-0.012c-0.427-0.269-0.855-0.537-1.306-0.733      c-1.074-0.476-1.966-1.38-3.236-1.428v-0.452c2.405-0.904,4.896-0.342,7.35-0.452c0.83-0.037,1.502-0.537,2.369-0.489      c1.624,0.098,3.321,0.244,4.908-0.036c2.906-0.501,5.861-0.012,8.693-0.501c2.491-0.415,4.945-0.012,7.375-0.379      c2.723-0.403,5.446-0.159,8.168-0.269c0.122,0,0.256,0,0.366-0.024c0.879-0.244,1.392,0.098,1.734,0.989      c0.659,1.709,1.331,3.407,2.344,4.969c0.391,0.598,0.44,1.38,0.855,2.002c0.476,0.708,0.867,1.477,1.197,2.247      c0.33,0.745,0.562,1.551,0.916,2.295c0.513,1.05,0.94,2.161,1.648,3.101c0.208,0.293,0.305,0.647,0.403,0.928      c0.391,1.111,1.05,2.088,1.429,3.199c0.354,1.025,0.879,1.99,1.355,2.967c0.513,1.001,1.05,2.002,1.599,2.979      c0.403,0.733,0.708,1.514,1.001,2.271c0.317,0.842,0.72,1.624,1.099,2.43c0.476,1.001,0.952,2.002,1.465,2.979      C244.674,351.114,244.759,351.346,244.576,351.53z" style="fill:#E34F50;adobe-blending-mode:multiply;enable-background:new    ;"/></g><g><path d="M294.991,287.111      c-0.549-0.94-1.184-1.819-1.783-2.723c-0.501-0.745-0.928-1.551-1.514-2.222c-1.038-1.197-2.32-2.173-3.358-3.382      c-0.403-0.452-0.83-0.952-1.355-1.245c-0.842-0.464-1.612-1.062-2.43-1.538c-0.733-0.415-1.404-0.964-2.259-1.172      c-0.891-0.22-1.746-0.586-2.625-0.855c-0.696-0.22-1.368-0.537-2.076-0.757c-0.672-0.208-1.404-0.293-2.015-0.55      c-0.891-0.366-1.819-0.525-2.711-0.574c-1.087-0.073-2.051-0.757-3.15-0.537c-0.024,0.012-0.061,0-0.073-0.012      c-0.989-0.83-2.271-0.232-3.394-0.757c-0.916-0.439-2.125-0.207-3.223-0.439c-1.966-0.391-4.005-0.22-6.019-0.44      c-3.065-0.342-6.203-0.098-9.316-0.098c-0.22,0-0.513-0.049-0.659,0.061c-0.684,0.55-1.465,0.33-2.21,0.342      c-0.537,0.037-1.184-0.098-1.599,0.098c-1.209-0.073-2.393-0.525-3.614-0.501c-0.147,0-0.33-0.024-0.342-0.208      c-0.024-0.195,0.147-0.22,0.293-0.256c1.27-0.403,2.588-0.61,3.809-1.148c0.049-0.024,0.098-0.049,0.147-0.037      c1.111,0.183,2.198-0.281,3.126-0.598c1.135-0.379,2.344,0.012,3.419-0.672c0.415-0.269,1.111-0.098,1.685-0.134      c0.745-0.012,1.526,0.195,2.21-0.342c0.147-0.122,0.44-0.061,0.659-0.061c3.113,0,6.251-0.244,9.316,0.085      c2.015,0.22,4.054,0.061,6.019,0.452c1.099,0.22,2.308,0,3.223,0.427c1.123,0.537,2.405-0.073,3.394,0.757      c0.012,0.024,0.049,0.024,0.073,0.024c1.099-0.22,2.063,0.464,3.15,0.525c0.891,0.061,1.819,0.208,2.711,0.574      c0.61,0.257,1.343,0.342,2.015,0.562c0.708,0.22,1.38,0.537,2.076,0.745c0.879,0.281,1.734,0.647,2.625,0.855      c0.855,0.22,1.526,0.769,2.259,1.184c0.818,0.476,1.587,1.062,2.43,1.538c0.525,0.293,0.952,0.781,1.355,1.245      c1.038,1.197,2.32,2.173,3.358,3.382c0.586,0.659,1.013,1.465,1.514,2.21c0.598,0.904,1.233,1.795,1.783,2.723      c0.672,1.148,1.27,2.344,1.905,3.504c0.684,1.27,1.184,2.601,1.697,3.932c0.159,0.415,0.708,0.525,1.258,0.256      c-0.098,0.061-0.208,0.122-0.305,0.171c-0.684,0.354-1.416,0.635-2.1,0.964c-0.72,0.342-1.404,0.757-2.1,1.123      c-0.684,0.354-1.465,0.476-2.088,0.989c-0.623,0.513-1.392,0.464-1.587-0.037c-0.513-1.331-1.013-2.674-1.697-3.932      C296.26,289.442,295.662,288.258,294.991,287.111z" style="fill:#E34F50;adobe-blending-mode:multiply;enable-background:new    ;"/></g><g><path d="M308.263,290.529      c-0.452,0.22-0.879,0.476-1.331,0.72c0.061-0.036,0.11-0.073,0.171-0.122C307.457,290.835,307.847,290.676,308.263,290.529z" style="fill:#E34F50;adobe-blending-mode:multiply;enable-background:new    ;"/></g><g><path d="M320.021,285.584      c-0.22,0.769-0.855,1.27-1.221,1.954c-0.708,1.367-1.648,2.601-2.405,3.944c-0.366,0.623-0.708,1.331-1.294,1.831      c-0.317,0.269-0.22,0.671-0.44,0.989c-0.586,0.916-1.392,1.734-1.856,2.674c-0.427,0.891-0.891,1.831-1.477,2.552      c-0.745,0.904-1.038,2.015-1.783,2.918c-0.635,0.781-1.136,1.734-1.648,2.65c-0.44,0.757-0.806,1.6-1.367,2.283      c-0.72,0.891-1.197,1.929-1.819,2.869c-0.513,0.769-0.916,1.612-1.575,2.259c-0.134,0.134-0.183,0.281-0.232,0.452      c-0.293,1.014-0.952,1.807-1.636,2.564c-0.366,0.391-0.598,0.891-0.733,1.306c-0.208,0.659-0.83,1.013-0.977,1.697      c-0.073,0.281-0.415,0.879-1.001,0.354c-0.122-0.11-0.379-0.073-0.574-0.098c-1.099-0.098-2.222,0.171-3.309-0.171      c0.562-0.647,1.062-1.343,1.306-2.198c0.049-0.159,0.098-0.305,0.232-0.44c0.659-0.659,1.062-1.502,1.575-2.259      c0.623-0.94,1.099-1.978,1.819-2.869c0.562-0.684,0.928-1.526,1.367-2.295c0.513-0.904,1.013-1.868,1.648-2.65      c0.745-0.891,1.038-2.014,1.783-2.918c0.586-0.708,1.05-1.661,1.477-2.552c0.464-0.94,1.27-1.746,1.856-2.662      c0.22-0.33,0.122-0.72,0.44-1.001c0.586-0.488,0.928-1.197,1.294-1.831c0.757-1.343,1.697-2.576,2.405-3.932      c0.366-0.696,1.001-1.197,1.221-1.954c0.061-0.183,0.269-0.354,0.012-0.513c-0.171-0.11-0.391-0.085-0.537,0.086      c-0.134,0.159-0.293,0.244-0.501,0.281c-0.855,0.098-1.563,0.598-2.32,0.916c0.501-0.281,1.013-0.562,1.538-0.818      c0.684-0.33,1.416-0.611,2.1-0.965c1.026-0.525,2.002-1.172,3.089-1.587c0.842-0.33,1.587-0.891,2.515-1.014      c0.208-0.024,0.366-0.122,0.501-0.281c0.147-0.171,0.366-0.195,0.537-0.085C320.289,285.23,320.082,285.401,320.021,285.584z" style="fill:#E34F50;adobe-blending-mode:multiply;enable-background:new    ;"/></g><g><path d="M285.735,400.747      c0,3.407,0.012,6.801,0.024,10.207c0,0.244-0.012,0.501-0.037,0.745c-0.012,0.195-0.134,0.317-0.33,0.33      c-0.208,0.012-0.464,0.012-0.501-0.22c-0.098-0.769-0.83-1.099-1.172-1.721c-0.513-0.965-1.099-1.929-1.758-2.833      c-1.111-1.526-2.137-3.138-3.15-4.737v-1.307c0-0.855,0.085-0.891,0.94-0.928c0.549-0.012,0.855,0.501,1.392,0.464      C282.671,400.625,284.197,400.796,285.735,400.747z" style="fill:#E34F50;adobe-blending-mode:multiply;enable-background:new    ;"/></g><g><path d="M303.586,367.646      c-2.381,0.342-4.847-0.232-7.216,0.513c-5.543,0-11.087-0.012-16.642,0.012c-0.745,0.012-0.916-0.269-0.904-0.952      c0.024-2.808,0.012-5.629,0.012-8.437v-3.15c0.342-0.525,0.72-1.05,1.172-1.514c0.391-0.391,0.855-1.001,0.94-1.697      c0.012-0.098,0.049-0.22,0.11-0.269c0.904-0.708,1.441-1.722,1.978-2.65c0.696-1.172,1.599-2.186,2.259-3.37      c0.061-0.11,0.098-0.257,0.244-0.208c0.073,0.024,0.159,0.134,0.171,0.22c0.024,0.244,0.049,0.501,0.049,0.745v8.437      c0,2.808,0.012,5.616-0.012,8.425c-0.012,0.696,0.159,0.964,0.904,0.964c5.555-0.024,11.099-0.012,16.642-0.024      c2.369-0.745,4.835-0.159,7.216-0.501c1.868-0.269,3.712-0.134,5.556-0.232c0.549-0.024,1.062,0,1.563-0.342      c0.256-0.183,0.733-0.159,1.087-0.098c0.525,0.085,1.05,0.085,1.551,0.012c-0.44,0.415-0.904,0.794-1.404,1.148      c-1.074,0.769-2.247,1.282-3.407,1.746c-1.099,0.44-2.369,0.769-3.663,0.549c-0.354-0.049-0.83-0.085-1.087,0.098      c-0.501,0.354-1.013,0.317-1.563,0.342C307.298,367.512,305.454,367.39,303.586,367.646z" style="fill:#E34F50;adobe-blending-mode:multiply;enable-background:new    ;"/></g><g><path d="M333.915,356.145      c-0.256,0.562-0.354,1.258-0.488,1.88c-0.134,0.659-0.379,1.306-0.647,1.844c-0.44,0.855-0.476,1.831-1.013,2.65      c-0.415,0.647-0.696,1.38-1.013,2.088c-0.379,0.855-0.733,1.721-1.111,2.588c-0.33,0.757-0.672,1.514-1.184,2.173      c-0.488,0.611-0.867,1.258-1.123,2.002c-0.146,0.44-0.427,0.83-0.672,1.221c-0.574,0.952-1.416,1.734-1.697,2.857      c-0.147,0.55-0.635,0.94-0.989,1.343c-0.977,1.148-1.599,2.54-2.588,3.712c-0.549,0.647-1.416,1.197-1.575,2.222      c-0.049,0.293-0.427,0.598-0.72,0.794c-0.94,0.623-1.306,1.697-2.027,2.454c-1.355,1.441-2.845,2.759-4.225,4.176      c-0.659,0.659-1.245,1.343-2.149,1.734c-0.415,0.171-0.794,0.598-1.16,0.904c-1.27,1.087-2.882,1.453-4.273,2.259      c-0.501,0.293-1.16,0.562-1.831,0.635c-0.073,0.012-0.134,0.024-0.208,0.037c0.171-0.159,0.354-0.293,0.549-0.379      c0.904-0.391,1.49-1.062,2.149-1.734c1.38-1.416,2.869-2.723,4.225-4.164c0.72-0.769,1.087-1.831,2.027-2.454      c0.293-0.196,0.672-0.501,0.72-0.806c0.159-1.013,1.026-1.575,1.575-2.222c0.989-1.16,1.612-2.552,2.588-3.712      c0.354-0.403,0.842-0.794,0.989-1.343c0.281-1.123,1.123-1.905,1.697-2.845c0.244-0.403,0.525-0.781,0.672-1.221      c0.256-0.745,0.635-1.392,1.123-2.015c0.513-0.647,0.855-1.416,1.184-2.173c0.378-0.855,0.733-1.734,1.111-2.588      c0.317-0.708,0.598-1.441,1.013-2.076c0.537-0.818,0.574-1.795,1.013-2.662c0.269-0.525,0.513-1.172,0.647-1.831      c0.073-0.317,0.122-0.659,0.208-0.989c0.94-0.794,1.77-1.661,2.637-2.515c0.598-0.598,1.294-1.136,1.807-1.807      c0.659-0.83,1.233-1.746,1.673-2.698c0.305-0.659,1.062-1.074,1.026-1.917c0-0.037,0.098-0.122,0.159-0.122      c0.147,0,0.22,0.134,0.208,0.256C334.111,353.178,334.599,354.667,333.915,356.145z" style="fill:#E34F50;adobe-blending-mode:multiply;enable-background:new    ;"/></g><g><path d="M260.852,293.899      c0.122,0.672-0.317,1.258-0.635,1.587c-0.708,0.757-1.087,1.636-1.599,2.478c-0.305,0.489-0.733,0.928-1.074,1.429      c-0.513,0.733-1.038,1.453-1.441,2.259c-0.342,0.696-1.013,1.16-1.441,1.831c-0.794,1.258-1.599,2.515-2.442,3.736      c-0.403,0.598-0.891,1.172-1.221,1.807c-0.586,1.123-1.636,1.941-2.027,3.175c-0.171,0.513-0.647,0.867-0.965,1.282      c-0.574,0.745-1.013,1.551-1.624,2.259c-0.488,0.562-0.867,1.209-1.233,1.844c-0.33,0.562-0.598,0.525-1.172,0.269      c-0.72-0.305-1.221-0.94-1.966-1.184c-0.11-0.037-0.256-0.098-0.293-0.195c-0.024-0.049-0.049-0.098-0.085-0.147      c0.171-0.195,0.33-0.403,0.415-0.659c0.391-1.245,1.441-2.063,2.027-3.174c0.33-0.647,0.818-1.209,1.221-1.807      c0.842-1.221,1.648-2.478,2.442-3.736c0.427-0.684,1.099-1.136,1.441-1.831c0.403-0.818,0.928-1.526,1.441-2.271      c0.342-0.488,0.769-0.94,1.074-1.428c0.513-0.83,0.891-1.722,1.599-2.466c0.317-0.342,0.757-0.916,0.635-1.6      c-0.342-1.013-0.598-2.076-1.123-3.04c-0.073-0.146-0.208-0.256-0.232-0.439c-0.171-1.099-0.855-1.954-1.441-2.821      c-0.464-0.672-0.794-1.514-1.563-1.966c-0.11-0.061-0.22-0.232-0.232-0.366c-0.073-0.513-0.403-0.843-0.757-1.148      c-0.989-0.867-1.929-1.783-2.979-2.576c-1.502-1.16-2.967-2.357-4.762-3.065c-0.562-0.232-1.123-0.476-1.636-0.781      c-1.172-0.708-2.454-1.123-3.773-1.16c-1.441-0.037-2.906-0.269-4.383,0.317c-0.208,0.086-0.427,0.159-0.647,0.232      c0.525-0.317,1.062-0.635,1.477-1.099c0.366-0.427,0.891-0.635,1.367-0.806c0.806-0.305,1.502-0.842,2.308-1.062      c0.806-0.232,1.685-0.427,2.418-0.72c1.477-0.586,2.943-0.354,4.383-0.317c1.319,0.024,2.601,0.44,3.773,1.148      c0.513,0.317,1.074,0.562,1.636,0.781c1.795,0.708,3.26,1.905,4.762,3.065c0.757,0.574,1.453,1.209,2.149,1.831      c0.269,0.256,0.549,0.501,0.83,0.745c0.354,0.317,0.684,0.647,0.757,1.16c0.012,0.134,0.122,0.293,0.232,0.366      c0.769,0.452,1.099,1.294,1.563,1.966c0.586,0.855,1.27,1.722,1.441,2.821c0.024,0.183,0.159,0.293,0.232,0.44      c0.183,0.342,0.342,0.696,0.476,1.05C260.449,292.568,260.632,293.24,260.852,293.899z" style="fill:#E34F50;adobe-blending-mode:multiply;enable-background:new    ;"/></g><g><path d="M332.182,339.393      c0.098,1.441-0.281,2.784-0.842,4.09c-0.171,0.415-0.281,0.904-0.366,1.294c-0.195,0.952-1.001,1.502-1.233,2.393      c-0.293,1.074-1.331,1.612-2.015,2.405c-0.586,0.684-1.245,1.331-1.941,1.893c-0.708,0.574-1.441,1.111-2.271,1.526      c-0.537,0.269-0.891,0.842-1.477,1.05c-1.392,0.501-2.418,1.771-3.98,1.917c-0.305,0.037-0.427,0.305-0.672,0.427      c-0.403,0.22-0.842,0.317-1.282,0.415c0.159-0.134,0.305-0.256,0.488-0.342c0.83-0.415,1.563-0.965,2.271-1.538      c0.696-0.562,1.355-1.209,1.941-1.893c0.684-0.781,1.722-1.319,2.015-2.393c0.232-0.904,1.038-1.453,1.233-2.393      c0.085-0.403,0.195-0.879,0.366-1.294c0.562-1.319,0.94-2.65,0.842-4.09c-0.024-0.33,0-0.647,0-0.977c-0.012,0-0.012,0-0.012,0      c0-0.769,0.012-1.538,0-2.308c0-0.22,0.012-0.488-0.085-0.659c-0.574-0.989-0.781-2.112-1.184-3.162      c-0.525-1.404-1.367-2.613-1.99-3.944c-0.256-0.537-0.745-0.855-0.989-1.331c-1.001-1.868-2.466-3.358-3.773-4.982      c-0.733-0.916-1.819-1.587-2.418-2.564c-0.733-1.197-1.819-1.99-2.711-2.991c-0.037-0.037-0.061-0.061-0.098-0.098      c0.464-0.293,0.916-0.623,1.429-0.867c1.233-0.598,2.295-1.538,3.639-1.917c0.281-0.073,0.354-0.342,0.525-0.513      c0.427-0.44,1.013-0.525,1.429-0.073c0.891,1.001,1.978,1.795,2.711,2.991c0.598,0.989,1.685,1.648,2.418,2.564      c1.306,1.624,2.772,3.126,3.773,4.994c0.244,0.464,0.733,0.794,0.989,1.331c0.623,1.331,1.465,2.527,1.99,3.944      c0.403,1.05,0.611,2.173,1.184,3.162c0.098,0.171,0.085,0.427,0.085,0.647c0.012,0.782,0,1.551,0,2.32c0,0,0,0,0.012,0      C332.182,338.746,332.157,339.075,332.182,339.393z" style="fill:#E34F50;adobe-blending-mode:multiply;enable-background:new    ;"/></g><g><path d="M256.505,363.715v30.28      c0,1.172-0.037,1.197-1.221,1.209c-0.537,0.012-1.087-0.098-1.563,0.33c-0.147,0.134-0.464,0.085-0.72,0.11      c-0.916,0.073-1.88-0.232-2.723,0.391c-0.085,0.073-0.244,0.049-0.366,0.049c-0.11-0.012-0.22-0.012-0.33-0.012V367.17      c0-1.074-0.024-1.099-1.074-1.099h-0.965c-7.399,0-14.786,0-22.173-0.012c0.769-1.087,1.612-2.112,2.613-3.004      c0.391-0.342,0.769-0.452,1.27-0.452c8.4,0.012,16.801,0.012,25.213,0.012c0.317,0,0.647-0.012,0.965,0      C256.481,362.616,256.505,362.628,256.505,363.715z" style="fill:#E34F50;adobe-blending-mode:multiply;enable-background:new    ;"/></g></g></g></g></svg>